<?xml version="1.0" encoding="utf-8"?>
<!-- Generator: Adobe Illustrator 17.0.0, SVG Export Plug-In . SVG Version: 6.00 Build 0)  -->
<!DOCTYPE svg PUBLIC "-//W3C//DTD SVG 1.1//EN" "http://www.w3.org/Graphics/SVG/1.1/DTD/svg11.dtd">
<svg version="1.1" id="Layer_1" xmlns="http://www.w3.org/2000/svg" xmlns:xlink="http://www.w3.org/1999/xlink" x="0px" y="0px"
	 width="98.328px" height="101.273px" viewBox="0 0 98.328 101.273" enable-background="new 0 0 98.328 101.273"
	 xml:space="preserve">
<path fill="#E5E5E5" d="M60.404,45.881c5.003,2.309,11.255,1.164,15.509-3.324l18.608-19.633l-0.007-0.004l0.138-0.153
	c1.179-1.249,1.227-3.311,0.086-4.601c-1.138-1.292-3.034-1.324-4.218-0.076l-0.141,0.152l-0.02-0.03L72.058,37.517
	c-1.118,1.179-2.66,1.394-3.736,0.187c-1.065-1.204-0.808-2.868,0.283-4.045c0.008-0.006,0.018-0.009,0.028-0.02l18.439-19.457
	c1.181-1.249,1.219-3.314,0.086-4.599c-1.149-1.298-3.037-1.322-4.218-0.074l-0.134,0.148l-0.03-0.022L64.478,28.938
	c-1.111,1.182-2.668,1.406-3.736,0.198c-1.068-1.219-0.81-2.903,0.303-4.083L79.343,5.747h0.005l0.139-0.148
	c1.181-1.255,1.219-3.317,0.078-4.604c-1.143-1.299-3.034-1.327-4.213-0.08L56.605,20.723c-4.481,4.475-6.735,10.436-5.159,15.461
	C52.803,40.525,55.398,43.573,60.404,45.881L60.404,45.881z M96.197,88.896L45.791,37.529c1.951-8.892-2.506-21.267-8.905-27.793
	C31.875,4.628,23.682,1.062,16.54,1.062c-1.76,0-3.454,0.216-5.021,0.677C9.222,2.413,7.195,3.62,5.648,5.441
	c-6.942,8.137-1.939,25.568,6.103,33.759c4.998,5.096,13.178,8.65,20.319,8.65c1.756,0,3.455-0.216,5.028-0.677
	c0.215-0.064,0.432-0.125,0.638-0.209L88.15,98.339c1.29,1.313,2.91,1.974,4.491,1.974c0.529,0,1.055-0.074,1.562-0.223
	c0.982-0.294,1.898-0.869,2.635-1.72C99.049,95.766,98.769,91.523,96.197,88.896L96.197,88.896z M2.192,90.199
	c-2.509,2.648-3.054,6.492-0.639,9.226c2.421,2.741,5.95,2.279,8.464-0.37l35.602-37.572l-8.249-8.408L2.192,90.199L2.192,90.199z"
	/>
</svg>
