<?xml version="1.0" encoding="utf-8"?>
<!-- Generator: Adobe Illustrator 17.0.0, SVG Export Plug-In . SVG Version: 6.00 Build 0)  -->
<!DOCTYPE svg PUBLIC "-//W3C//DTD SVG 1.1//EN" "http://www.w3.org/Graphics/SVG/1.1/DTD/svg11.dtd">
<svg version="1.1" id="Layer_1" xmlns="http://www.w3.org/2000/svg" xmlns:xlink="http://www.w3.org/1999/xlink" x="0px" y="0px"
	 width="161.694px" height="27.018px" viewBox="0 0 161.694 27.018" enable-background="new 0 0 161.694 27.018"
	 xml:space="preserve">
<g>
	<g>
		<path fill="#FFFFFF" d="M132.193,6.135l-14.75,14.742c8.148,8.153,21.354,8.153,29.497,0l14.754-14.742
			C153.539-2.012,140.338-2.012,132.193,6.135z"/>
	</g>
	<g>
		<path fill="#654665" d="M131.076,0.002h-12.307c0,6.796,5.511,12.309,12.307,12.309h12.308
			C143.384,5.512,137.874,0.002,131.076,0.002z"/>
	</g>
	<g>
		<rect x="105.99" y="7.183" fill="#654665" width="4.513" height="19.833"/>
		<path fill="#654665" d="M97.393,7.183h-4.496v19.833h4.513V13.548c1.967-1.548,3.635-2.324,5.499-2.324V7.183
			c-1.939,0-3.778,0.843-5.516,2.53V7.183z"/>
		<path fill="#654665" d="M35.128,7.183c-2.167,0-4.571,0.313-7.217,0.944v3.966c2.646-0.63,5.05-0.944,7.217-0.944
			c2.557,0,4.156,0.888,4.156,2.662v1.494c-1.348-0.253-3.017-0.378-4.364-0.378c-5.743,0-8.614,1.971-8.614,5.912
			c0,4.118,2.424,6.177,7.273,6.177c2.078,0,3.98-0.591,5.706-1.774v1.774h4.685V13.717C43.969,9.36,41.022,7.183,35.128,7.183z
			 M39.263,21.878c-1.723,1.034-3.265,1.55-4.928,1.55c-2.016,0-3.022-0.882-3.022-2.646c0-1.635,1.203-2.453,3.608-2.453
			c1.436,0,2.783,0.125,4.342,0.377V21.878z"/>
		<path fill="#654665" d="M79.333,7.183c-2.166,0-4.571,0.313-7.217,0.944v3.966c2.646-0.63,5.051-0.944,7.217-0.944
			c2.556,0,4.156,0.888,4.156,2.662v1.494c-1.348-0.253-3.016-0.378-4.364-0.378c-5.743,0-8.615,1.971-8.615,5.912
			c0,4.118,2.425,6.177,7.274,6.177c2.078,0,3.979-0.591,5.705-1.774v1.774h4.684V13.717C88.174,9.36,85.228,7.183,79.333,7.183z
			 M83.468,21.878c-1.724,1.034-3.266,1.55-4.928,1.55c-2.016,0-3.022-0.882-3.022-2.646c0-1.635,1.202-2.453,3.608-2.453
			c1.436,0,2.783,0.125,4.343,0.377V21.878z"/>
		<path fill="#654665" d="M59.686,7.183c-2.43,0-4.596,0.968-6.498,2.907V7.183h-4.495v19.833h4.495V13.169
			c2.06-1.296,3.646-1.945,5.271-1.945c2.179,0,3.268,1.096,3.268,3.286v12.506h5.006V14.51C66.733,9.625,64.384,7.183,59.686,7.183
			z"/>
		<rect x="0" y="0" fill="#654665" width="5.033" height="27.018"/>
		<path fill="#654665" d="M14.082,11.727L25.834,0h-6.882L8.748,10.088L8.384,10.5c-0.719,0.79-1.158,1.856-1.158,3.008
			c0,1.154,0.439,2.22,1.158,3.011l0.365,0.411l10.204,10.088h6.882L13.946,15.158l-0.619-0.618
			c-0.265-0.263-0.427-0.629-0.427-1.032c0-0.402,0.163-0.767,0.427-1.031L14.082,11.727z"/>
		<circle fill="#654665" cx="108.246" cy="2.281" r="2.256"/>
	</g>
	<path fill="#654665" d="M151.718,6.272c-0.57,0.568-1.499,0.568-2.062,0.002c-0.571-0.57-0.571-1.496,0-2.066
		c0.563-0.569,1.492-0.569,2.062,0C152.289,4.777,152.289,5.703,151.718,6.272z"/>
</g>
</svg>
