<?xml version="1.0" encoding="utf-8"?>
<!-- Generator: Adobe Illustrator 17.0.0, SVG Export Plug-In . SVG Version: 6.00 Build 0)  -->
<!DOCTYPE svg PUBLIC "-//W3C//DTD SVG 1.1//EN" "http://www.w3.org/Graphics/SVG/1.1/DTD/svg11.dtd">
<svg version="1.1" id="Layer_1" xmlns="http://www.w3.org/2000/svg" xmlns:xlink="http://www.w3.org/1999/xlink" x="0px" y="0px"
	 width="44.745px" height="46.685px" viewBox="0 0 44.745 46.685" enable-background="new 0 0 44.745 46.685" xml:space="preserve">
<path fill="#FFFFFF" d="M24.312,46.685c-7.434,0-13.408-2.318-17.757-6.888C2.205,35.228,0,29.704,0,23.375
	c0-6.631,2.299-12.244,6.834-16.684C11.368,2.251,16.928,0,23.358,0c6.06,0,11.195,1.953,15.261,5.804
	c4.066,3.85,6.126,8.635,6.126,14.223c0,4.299-1.109,8.142-3.299,11.425c-2.188,3.286-4.888,4.95-8.025,4.95
	c-2.568,0-4.335-1.349-5.25-4.008c-2.051,2.747-4.54,4.139-7.399,4.139c-2.925,0-5.408-1.173-7.383-3.485
	c-1.974-2.314-2.975-5.269-2.975-8.784c0-3.841,1.14-7.052,3.387-9.539c2.248-2.49,5.012-3.75,8.22-3.75
	c3.054,0,5.433,1.28,7.07,3.808l0.221-1.898c0.089-0.771,0.743-1.352,1.518-1.352h1.318c0.437,0,0.853,0.186,1.144,0.512
	c0.29,0.329,0.426,0.763,0.374,1.198L32.031,26.9c-0.13,1.133-0.197,2.132-0.197,2.961c0,1.527,0.721,2.27,2.201,2.27
	c1.635,0,3.171-1.173,4.567-3.486c1.395-2.315,2.103-5.071,2.103-8.191c0-4.931-1.697-8.938-5.044-11.906
	c-3.346-2.968-7.54-4.473-12.467-4.473c-5.124,0-9.589,1.864-13.273,5.54c-3.683,3.677-5.552,8.318-5.552,13.795
	c0,5.128,1.769,9.648,5.257,13.431c3.487,3.785,8.429,5.704,14.686,5.704c4.431,0,8.88-1.005,13.224-2.989
	c0.202-0.093,0.418-0.14,0.636-0.14c0.2,0,0.401,0.041,0.59,0.12c0.393,0.164,0.7,0.486,0.846,0.888l0.394,1.084
	c0.272,0.749-0.076,1.581-0.8,1.913C34.473,45.587,29.462,46.685,24.312,46.685L24.312,46.685z M22.438,15.342
	c-1.902,0-3.497,0.831-4.878,2.537c-1.362,1.68-2.054,3.885-2.054,6.549c0,2.338,0.547,4.232,1.627,5.631
	c1.094,1.416,2.379,2.105,3.926,2.105c1.924,0,3.552-0.963,4.978-2.945c1.406-1.956,2.119-4.254,2.119-6.832
	c0-2.098-0.564-3.813-1.676-5.101C25.35,15.978,24.029,15.342,22.438,15.342L22.438,15.342z"/>
</svg>
