<?xml version="1.0" encoding="utf-8"?>
<!-- Generator: Adobe Illustrator 17.0.0, SVG Export Plug-In . SVG Version: 6.00 Build 0)  -->
<!DOCTYPE svg PUBLIC "-//W3C//DTD SVG 1.1//EN" "http://www.w3.org/Graphics/SVG/1.1/DTD/svg11.dtd">
<svg version="1.1" id="Layer_1" xmlns="http://www.w3.org/2000/svg" xmlns:xlink="http://www.w3.org/1999/xlink" x="0px" y="0px"
	 width="50.078px" height="101.64px" viewBox="0 0 50.078 101.64" enable-background="new 0 0 50.078 101.64" xml:space="preserve">
<path fill="#E5E5E5" d="M27.475,84.512v-26.42c4.185,1.138,7.165,2.344,8.94,3.616c3.081,2.177,4.621,5.358,4.621,9.544
	c0,2.645-0.569,4.972-1.707,6.981C37.152,82.151,33.201,84.244,27.475,84.512L27.475,84.512L27.475,84.512z M10.447,36.041
	c0-2.745,0.937-5.374,2.811-7.885c1.874-2.512,5.022-3.851,9.445-4.019v23.608c-3.748-0.737-6.727-2.042-8.939-3.918
	C11.552,41.952,10.447,39.356,10.447,36.041L10.447,36.041L10.447,36.041z M1.406,36.644c0,5.693,1.732,10.146,5.198,13.361
	c3.465,3.215,8.832,5.509,16.099,6.881v27.375c-5.667-0.469-9.547-2.595-11.637-6.379c-1.181-2.11-1.906-5.458-2.176-10.046H0
	c0,5.76,0.954,10.331,2.863,13.712c3.482,6.263,10.096,9.711,19.84,10.347v9.745h4.772v-9.745c6.06-0.67,10.698-2.042,13.913-4.118
	c5.793-3.75,8.69-10.079,8.69-18.987c0-6.16-2.261-10.815-6.781-13.963c-2.78-1.909-8.054-3.951-15.822-6.128V24.238
	c4.621,0.168,7.986,1.942,10.096,5.324c1.138,1.842,1.824,4.035,2.059,6.58h8.79c-0.168-5.678-2.034-10.245-5.6-13.702
	c-3.567-3.457-8.682-5.42-15.345-5.887v-6.58h-4.772v6.68c-6.731,0.068-11.963,2.144-15.696,6.229
	C3.272,26.967,1.406,31.555,1.406,36.644L1.406,36.644L1.406,36.644z"/>
<polygon fill="#E5E5E5" points="19.699,10.122 31.08,10.122 25.39,0 19.699,10.122 "/>
</svg>
