<?xml version="1.0" encoding="utf-8"?>
<!-- Generator: Adobe Illustrator 17.0.0, SVG Export Plug-In . SVG Version: 6.00 Build 0)  -->
<!DOCTYPE svg PUBLIC "-//W3C//DTD SVG 1.1//EN" "http://www.w3.org/Graphics/SVG/1.1/DTD/svg11.dtd">
<svg version="1.1" id="Layer_1" xmlns="http://www.w3.org/2000/svg" xmlns:xlink="http://www.w3.org/1999/xlink" x="0px" y="0px"
	 width="103.712px" height="101.273px" viewBox="0 0 103.712 101.273" enable-background="new 0 0 103.712 101.273"
	 xml:space="preserve">
<path fill="#E5E5E5" d="M102.289,47.681c3.079-5.572,0.994-12.618-4.654-15.735c-4.046-2.237-8.819-1.838-12.337,0.613
	c0.31,0.153,0.624,0.285,0.93,0.453c6.855,3.785,11.098,10.431,12.065,17.576c-2.131-4.435-4.946-8.466-8.255-11.599
	c-9.202-8.71-22.143-11.19-33.965-7.726c-1.127,1.502-2.339,2.892-3.625,4.146c4.027,7.998,3.986,18.851-2.729,27.389
	c-2.674,3.4-6.311,7.936-12.397,11.089c3.47-2.699,5.841-5.623,7.555-7.685c8.475-10.201,7.082-22.332,1.148-30.296
	c2.67-2.495,5.068-5.525,7.007-9.033c5.021-9.091,5.748-19.097,2.714-26.665c-7.712,1.738-15.361,7.57-20.186,16.305
	c-1.977,3.579-3.278,7.298-3.957,10.956c-1.801-0.157-3.636-0.068-5.477,0.255c0.069-4.011-0.569-8.243-2.023-12.446
	C21.917,8.947,18.249,3.692,13.868,0c-3.685,8.259-3.83,20.568,0.295,33.189c-3.592,2.776-6.808,6.466-9.272,10.926
	c-7.746,14.025-6.626,35.216,5.762,36.52c-2.377,1.222-3.866,3.819-3.513,6.624c0.379,2.973,2.699,5.198,5.522,5.626
	c-0.048-0.229-0.095-0.462-0.119-0.701c-0.451-4.442,3.444-8.674,8.695-9.449l0.388-0.056c2.48-0.077,6.648,1.41,7.096,4.537
	c0,0-2.532-2.83-6.57-1.991c-3.103,0.643-6.869,3.991-7.018,7.96c-0.003,0.345-0.009,0.69,0.036,1.043
	c0.039,0.311,0.1,0.614,0.172,0.911c0.023,0.09,0.052,0.18,0.078,0.271c0.059,0.209,0.123,0.417,0.198,0.616
	c0.033,0.087,0.067,0.172,0.103,0.26c0.088,0.212,0.184,0.419,0.29,0.624c0.03,0.058,0.059,0.119,0.091,0.175
	c0.142,0.26,0.296,0.512,0.465,0.754c0,0-0.001,0-0.001-0.003c1.66,2.366,4.54,3.763,7.607,3.372l22.224-2.809
	c-1.848-1.511-3.056-3.749-3.13-6.281c-0.07-2.47,0.949-4.716,2.625-6.325c0.242,1.545,1.392,2.902,3.081,3.823
	c-0.46,1.246-0.642,2.616-0.464,4.023c0.216,1.704,0.933,3.215,1.966,4.434c0.162,0.188,0.327,0.377,0.503,0.552
	c0.097,0.096,0.2,0.183,0.301,0.273c0.157,0.144,0.314,0.284,0.48,0.412c0.139,0.109,0.286,0.207,0.432,0.305
	c0.141,0.098,0.28,0.197,0.427,0.284c0.18,0.107,0.368,0.202,0.556,0.298c1.464,0.738,3.148,1.078,4.9,0.857l30.222-4.189
	c4.687-0.595,8.007-4.875,7.414-9.564c-0.025-0.194-0.064-0.382-0.102-0.57c8.966-8.038,8.652-22.985,3.143-35.177
	C100.173,50.58,101.402,49.287,102.289,47.681L102.289,47.681z M77.922,48.384c-10.271,0-18.596,9.986-18.596,22.305
	c0,4.625,1.18,8.913,3.19,12.473l-3.676,0.512c-2.435-3.738-3.896-8.379-3.896-13.426c0-12.316,8.601-22.301,19.211-22.301
	c1.299,0,2.566,0.154,3.792,0.439C77.939,48.386,77.93,48.384,77.922,48.384L77.922,48.384z"/>
</svg>
