<?xml version="1.0" encoding="utf-8"?>
<!-- Generator: Adobe Illustrator 17.0.0, SVG Export Plug-In . SVG Version: 6.00 Build 0)  -->
<!DOCTYPE svg PUBLIC "-//W3C//DTD SVG 1.1//EN" "http://www.w3.org/Graphics/SVG/1.1/DTD/svg11.dtd">
<svg version="1.1" id="Layer_1" xmlns="http://www.w3.org/2000/svg" xmlns:xlink="http://www.w3.org/1999/xlink" x="0px" y="0px"
	 width="74.5px" height="76px" viewBox="0 0 74.5 76" enable-background="new 0 0 74.5 76" xml:space="preserve">
<g>
	<path fill="#FFFFFF" d="M23.383,19.987c0,2.151-1.743,3.895-3.893,3.895H4.893C2.743,23.882,1,22.138,1,19.987V4.895
		C1,2.744,2.743,1,4.893,1H19.49c2.15,0,3.893,1.744,3.893,3.895V19.987z"/>
	<path fill="#FFFFFF" d="M48.685,19.987c0,2.151-1.743,3.895-3.893,3.895H30.195c-2.15,0-3.893-1.744-3.893-3.895V4.895
		C26.302,2.744,28.045,1,30.195,1h14.597c2.15,0,3.893,1.744,3.893,3.895V19.987z"/>
	<path fill="#FFFFFF" d="M73.5,19.987c0,2.151-1.743,3.895-3.893,3.895H55.01c-2.15,0-3.893-1.744-3.893-3.895V4.895
		C51.117,2.744,52.86,1,55.01,1h14.597c2.15,0,3.893,1.744,3.893,3.895V19.987z"/>
	<path fill="#FFFFFF" d="M23.383,45.546c0,2.151-1.743,3.895-3.893,3.895H4.893C2.743,49.441,1,47.697,1,45.546V30.454
		c0-2.151,1.743-3.895,3.893-3.895H19.49c2.15,0,3.893,1.744,3.893,3.895V45.546z"/>
	<path fill="#FFFFFF" d="M48.685,45.546c0,2.151-1.743,3.895-3.893,3.895H30.195c-2.15,0-3.893-1.744-3.893-3.895V30.454
		c0-2.151,1.743-3.895,3.893-3.895h14.597c2.15,0,3.893,1.744,3.893,3.895V45.546z"/>
	<path fill="#FFFFFF" d="M73.5,45.546c0,2.151-1.743,3.895-3.893,3.895H55.01c-2.15,0-3.893-1.744-3.893-3.895V30.454
		c0-2.151,1.743-3.895,3.893-3.895h14.597c2.15,0,3.893,1.744,3.893,3.895V45.546z"/>
	<path fill="#FFFFFF" d="M23.383,71.105c0,2.151-1.743,3.895-3.893,3.895H4.893C2.743,75,1,73.256,1,71.105V56.013
		c0-2.151,1.743-3.895,3.893-3.895H19.49c2.15,0,3.893,1.744,3.893,3.895V71.105z"/>
	<path fill="#FFFFFF" d="M48.685,71.105c0,2.151-1.743,3.895-3.893,3.895H30.195c-2.15,0-3.893-1.744-3.893-3.895V56.013
		c0-2.151,1.743-3.895,3.893-3.895h14.597c2.15,0,3.893,1.744,3.893,3.895V71.105z"/>
	<path fill="#FFFFFF" d="M73.5,71.105c0,2.151-1.743,3.895-3.893,3.895H55.01c-2.15,0-3.893-1.744-3.893-3.895V56.013
		c0-2.151,1.743-3.895,3.893-3.895h14.597c2.15,0,3.893,1.744,3.893,3.895V71.105z"/>
</g>
</svg>
