<?xml version="1.0" encoding="utf-8"?>
<!-- Generator: Adobe Illustrator 17.0.0, SVG Export Plug-In . SVG Version: 6.00 Build 0)  -->
<!DOCTYPE svg PUBLIC "-//W3C//DTD SVG 1.1//EN" "http://www.w3.org/Graphics/SVG/1.1/DTD/svg11.dtd">
<svg version="1.1" id="Layer_1" xmlns="http://www.w3.org/2000/svg" xmlns:xlink="http://www.w3.org/1999/xlink" x="0px" y="0px"
	 width="61.117px" height="61.117px" viewBox="0 0 23.73 23.231" enable-background="new 0 0 23.73 23.231" xml:space="preserve">
<g>
	<path fill="#fdbe3b" d="M19.748,14.037c0,0,2.982-1.147,2.982-1.304v-2.331c0-0.161-2.988-1.22-2.988-1.22l-0.55-1.301
		c0,0,1.276-2.874,1.165-2.984l-1.69-1.647c-0.116-0.113-2.997,1.199-2.997,1.199l-1.33-0.535c0,0-1.172-2.913-1.333-2.913h-2.385
		C10.457,1,9.37,3.919,9.37,3.919L8.043,4.457c0,0-2.941-1.248-3.054-1.136L3.302,4.969C3.186,5.083,4.53,7.899,4.53,7.899
		l-0.55,1.298c0,0-2.981,1.146-2.981,1.301v2.332c0,0.163,2.988,1.225,2.988,1.225l0.547,1.297c0,0-1.275,2.872-1.163,2.982
		l1.688,1.65c0.114,0.111,2.996-1.201,2.996-1.201l1.33,0.538c0,0,1.174,2.91,1.336,2.91h2.385c0.165,0,1.252-2.919,1.252-2.919
		l1.331-0.537c0,0,2.935,1.248,3.049,1.138l1.689-1.648c0.118-0.116-1.228-2.929-1.228-2.929L19.748,14.037z M11.865,15.018
		c-1.919,0-3.484-1.526-3.484-3.402c0-1.875,1.565-3.4,3.484-3.4c1.92,0,3.483,1.525,3.483,3.4
		C15.347,13.492,13.785,15.018,11.865,15.018z"/>
	<circle fill="#fdbe3b" cx="11.865" cy="11.616" r="2.138"/>
</g>
</svg>
