<?xml version="1.0" encoding="utf-8"?>
<!-- Generator: Adobe Illustrator 17.0.0, SVG Export Plug-In . SVG Version: 6.00 Build 0)  -->
<!DOCTYPE svg PUBLIC "-//W3C//DTD SVG 1.1//EN" "http://www.w3.org/Graphics/SVG/1.1/DTD/svg11.dtd">
<svg version="1.1" id="Layer_1" xmlns="http://www.w3.org/2000/svg" xmlns:xlink="http://www.w3.org/1999/xlink" x="0px" y="0px"
	 width="45.825px" height="50.722px" viewBox="0 0 45.825 50.722" enable-background="new 0 0 45.825 50.722" xml:space="preserve">
<path fill="#FFFFFF" d="M35.718,49.376c-1.181,0-5.151,0-5.151,0l0,0c-0.71,0-1.279-0.574-1.279-1.279l0,0
	c0-0.707,0.569-1.279,1.279-1.279l0,0c0,0,3.972,0,5.151,0l0,0c3-0.013,4.769-0.964,5.909-2.262l0,0
	c1.133-1.306,1.642-3.102,1.639-4.877l0,0l0.002-16.613c-0.005-0.044-0.005-0.08-0.005-0.105l0,0l0.002-0.023
	c-0.002-5.225-1.958-10.43-5.938-14.408l0,0c-3.987-3.985-9.2-5.97-14.42-5.972l0,0C17.694,2.56,12.486,4.549,8.504,8.531l0,0
	c-3.973,3.971-5.935,9.161-5.945,14.373l0,0c0.042,0.706-0.497,1.312-1.198,1.356l0,0c-0.705,0.043-1.313-0.492-1.358-1.198l0,0
	c-0.005-0.07-0.002-0.113-0.002-0.131l0,0c-0.003-5.86,2.215-11.735,6.694-16.209l0,0C11.169,2.246,17.046,0,22.909,0l0,0
	c5.868,0,11.746,2.241,16.224,6.722l0,0c4.483,4.475,6.691,10.357,6.689,16.216l0,0v0.023l0.002,0.022l-0.002,16.696
	c0,2.237-0.624,4.651-2.261,6.55l0,0c-1.63,1.898-4.258,3.147-7.786,3.147l0,0C35.757,49.376,35.738,49.376,35.718,49.376
	L35.718,49.376L35.718,49.376z"/>
<path fill="#FFFFFF" d="M27.246,47.196v1.609c0,1.055-0.862,1.917-1.915,1.917h-3.682c-1.054,0-1.91-0.862-1.91-1.917v-1.609
	c0-1.055,0.857-1.918,1.91-1.918h3.682C26.385,45.278,27.246,46.141,27.246,47.196L27.246,47.196z"/>
<path fill="#FFFFFF" d="M19.367,25.091c0,1.379-1.118,2.496-2.492,2.496c-1.376,0-2.493-1.117-2.493-2.496
	c0-1.379,1.116-2.495,2.493-2.495C18.248,22.596,19.367,23.712,19.367,25.091L19.367,25.091z"/>
<path fill="#FFFFFF" d="M41.143,31.586c0,2.109-0.55,4.327-2.006,5.704c-1.438,1.381-3.408,1.993-4.692,1.895h-2.201
	c-2.794,1.843-6.137,2.924-9.737,2.924c-3.595,0-6.939-1.081-9.732-2.924h-2.153c-1.284-0.012-3.028-0.523-4.479-1.915
	c-1.457-1.381-2.014-3.611-2.014-5.729c0-2.257,0.775-9.905,1.332-11.878c2.315-8.184,8.793-14.272,17.045-14.272
	c8.259,0,14.926,6.278,17.05,14.271C40.123,21.794,41.143,29.204,41.143,31.586L41.143,31.586z M37.18,24.409
	c-0.007-1.223-0.175-3.269-0.456-4.406c-1.234,0.654-3.005,1.159-5.242,1.159c-7.008,0-12.975-2.405-17.074-7.457
	c-0.809,4.804-3.166,8.512-6.516,11.754c0.552,7.609,6.871,13.605,14.614,13.62C30.604,39.064,37.161,32.512,37.18,24.409
	L37.18,24.409z"/>
<path fill="#FFFFFF" d="M30.635,25.091c0,1.379-1.118,2.496-2.494,2.496c-1.378,0-2.494-1.117-2.494-2.496
	c0-1.376,1.116-2.495,2.494-2.495C29.517,22.596,30.635,23.715,30.635,25.091L30.635,25.091z"/>
</svg>
