<?xml version="1.0" encoding="utf-8"?>
<!-- Generator: Adobe Illustrator 17.0.0, SVG Export Plug-In . SVG Version: 6.00 Build 0)  -->
<!DOCTYPE svg PUBLIC "-//W3C//DTD SVG 1.1//EN" "http://www.w3.org/Graphics/SVG/1.1/DTD/svg11.dtd">
<svg version="1.1" id="Layer_1" xmlns="http://www.w3.org/2000/svg" xmlns:xlink="http://www.w3.org/1999/xlink" x="0px" y="0px"
	 width="65.509px" height="61.625px" viewBox="36.14 42.869 65.509 61.625" enable-background="new 36.14 42.869 65.509 61.625"
	 xml:space="preserve">
<path fill="#5B3E5A" d="M73.936,43.829c-3.142,0.523-7.594,1.047-11.871,1.222c-2.531-1.397-5.412-2.182-8.38-2.182h-0.087
	c-6.634,0-15.537,4.538-15.537,14.489c0,5.936,3.753,10.038,7.681,11.697c-1.397,1.746-4.19,4.015-7.681,5.324
	c-0.088,0.873,0.174,2.357,0.96,3.666c1.135,1.833,3.317,3.841,6.459,4.801c-2.095,1.571-5.499,4.365-7.245,6.11
	c-1.309,1.31-2.095,2.968-2.095,4.888c0.088,4.976,5.412,10.65,15.101,10.65c11.609,0,21.822-8.467,21.822-17.283
	c0-8.555-7.158-10.3-12.569-10.3c-2.881,0-6.023,0.087-9.166,0.087c-3.927,0-5.499-1.659-5.499-3.404
	c0-1.222,1.397-2.793,2.619-3.579c1.397,0.174,2.968,0.436,4.452,0.436c7.419,0,15.275-4.539,15.275-13.966
	c0-3.142-0.96-5.848-2.619-7.768l4.976,0.262c1.396-0.699,3.142-3.055,3.928-4.452L73.936,43.829L73.936,43.829z M52.812,45.487
	c4.976,0,8.205,4.888,8.205,11.784s-3.404,10.3-7.244,10.387c-4.889,0-8.205-4.888-8.205-11.696c0-6.809,3.404-10.475,7.157-10.475
	H52.812L52.812,45.487z M54.733,83.021c3.666,0,6.197,0.262,8.379,1.134c2.532,1.048,4.016,3.23,4.016,6.198
	c0,5.412-4.278,9.689-12.57,9.689c-6.459,0-11.522-3.579-11.522-8.292c0-2.532,1.746-4.976,4.015-6.809
	c1.572-1.397,3.492-1.92,7.594-1.92L54.733,83.021L54.733,83.021z"/>
<polygon fill="#5B3E5A" points="91.605,67.261 91.605,57.141 101.649,57.141 101.649,52.912 91.605,52.912 91.605,42.869 
	87.326,42.869 87.326,52.912 77.282,52.912 77.282,57.141 87.326,57.141 87.326,67.261 "/>
</svg>
