<?xml version="1.0" encoding="utf-8"?>
<!-- Generator: Adobe Illustrator 17.0.0, SVG Export Plug-In . SVG Version: 6.00 Build 0)  -->
<!DOCTYPE svg PUBLIC "-//W3C//DTD SVG 1.1//EN" "http://www.w3.org/Graphics/SVG/1.1/DTD/svg11.dtd">
<svg version="1.1" id="Layer_1" xmlns="http://www.w3.org/2000/svg" xmlns:xlink="http://www.w3.org/1999/xlink" x="0px" y="0px"
	 width="50.707px" height="43.48px" viewBox="0 0 50.707 43.48" enable-background="new 0 0 50.707 43.48" xml:space="preserve">
<path fill="#5B3E5A" d="M2.837,0.384C1.651,0.885,0.73,1.817,0.246,3.011C0.083,3.415,0,3.838,0,4.268
	c0,1.374,0.821,2.595,2.092,3.111c0.612,0.248,1.285,0.243,1.893-0.015c0.609-0.257,1.079-0.736,1.326-1.347
	c0.115-0.285,0.113-0.598-0.007-0.881C5.182,4.851,4.96,4.633,4.679,4.52C4.117,4.292,3.49,4.539,3.222,5.094
	c-0.027,0.055-0.078,0.1-0.136,0.12C3.025,5.235,2.959,5.231,2.902,5.202C2.405,4.957,2.175,4.374,2.378,3.875
	c0.253-0.624,0.734-1.111,1.353-1.374c0.621-0.262,1.306-0.267,1.93-0.014C7.888,3.39,8.358,5.059,8.867,7.701
	c0.481,2.495,1.783,15.559,2.039,18.152l0.007,0.064c0.04,0.304,0.201,0.58,0.445,0.766c0.247,0.19,0.553,0.272,0.863,0.232
	c0.309-0.04,0.584-0.199,0.773-0.446c0.19-0.245,0.273-0.551,0.232-0.861c-0.017-0.126-1.952-14.774-2.246-17.366
	c-0.268-2.379-1.205-6.568-4.453-7.886C5.332-0.128,4.022-0.118,2.837,0.384L2.837,0.384z"/>
<path fill="#5B3E5A" d="M2.938,0.624C1.816,1.097,0.946,1.98,0.488,3.109C0.334,3.488,0.26,3.881,0.26,4.268
	c0,1.222,0.729,2.383,1.93,2.87C2.737,7.36,3.339,7.355,3.884,7.124c0.545-0.23,0.965-0.658,1.186-1.205
	C5.159,5.7,5.158,5.457,5.064,5.237C4.971,5.019,4.8,4.85,4.582,4.761C4.149,4.586,3.664,4.778,3.457,5.207
	C3.399,5.326,3.295,5.418,3.17,5.461C3.043,5.504,2.907,5.495,2.787,5.436c-0.619-0.305-0.904-1.034-0.65-1.659
	c0.28-0.688,0.81-1.226,1.494-1.515c0.684-0.29,1.44-0.296,2.129-0.016c2.342,0.95,2.853,2.757,3.364,5.406
	c0.518,2.693,1.987,17.607,2.049,18.24c0.03,0.228,0.156,0.44,0.344,0.585c0.193,0.147,0.431,0.211,0.67,0.18
	c0.24-0.031,0.453-0.154,0.6-0.346c0.148-0.192,0.211-0.43,0.182-0.67c-0.02-0.141-1.956-14.795-2.247-17.37
	c-0.263-2.322-1.169-6.406-4.293-7.674C5.299,0.139,4.059,0.148,2.938,0.624L2.938,0.624z"/>
<path fill="#5B3E5A" d="M36.525,13.012C36.524,13.012,36.524,13.012,36.525,13.012c-0.591,0.003-1.072,0.487-1.071,1.079
	c0.001,0.215,0.053,21.52,0.035,23.024c-0.019,1.475,0.239,4.115,2.193,5.21c0.746,0.417,1.607,0.519,2.427,0.287
	c0.82-0.23,1.502-0.767,1.921-1.512c0.63-1.128,0.226-2.559-0.9-3.189c-0.88-0.493-1.998-0.178-2.492,0.703
	c-0.139,0.247-0.173,0.535-0.096,0.809c0.077,0.274,0.256,0.502,0.504,0.641c0.371,0.207,0.817,0.158,1.143-0.084
	c-0.002,0.026-0.007,0.053-0.02,0.078c-0.138,0.247-0.366,0.425-0.639,0.504c-0.272,0.076-0.559,0.042-0.806-0.096
	c-1.003-0.562-1.161-1.355-1.262-2.908c-0.102-1.563,0.141-23.253,0.143-23.472C37.603,13.489,37.118,13.009,36.525,13.012
	L36.525,13.012z"/>
<path fill="#5B3E5A" d="M35.715,14.091c0,0,0.052,21.504,0.035,23.027c-0.02,1.522,0.272,3.978,2.061,4.98
	c0.685,0.383,1.476,0.476,2.229,0.263c0.755-0.212,1.381-0.706,1.765-1.388c0.56-1.003,0.202-2.274-0.799-2.835
	c-0.756-0.423-1.715-0.153-2.138,0.603c-0.218,0.387-0.079,0.879,0.308,1.096c0.372,0.208,0.834,0.083,1.063-0.269
	c0.204,0.135,0.281,0.4,0.161,0.617c-0.173,0.308-0.455,0.53-0.795,0.627c-0.34,0.095-0.696,0.053-1.005-0.119
	c-1.118-0.626-1.292-1.527-1.395-3.118c-0.104-1.592,0.143-23.492,0.143-23.492c-0.002-0.45-0.368-0.813-0.82-0.811
	C36.076,13.274,35.714,13.641,35.715,14.091L35.715,14.091z"/>
<path fill="#5B3E5A" d="M35.072,14.082c0,0.001,0,0.003,0,0.004c0.003,0.219,0.246,21.909,0.144,23.472
	c-0.102,1.553-0.26,2.346-1.263,2.907c-0.247,0.139-0.535,0.173-0.808,0.096c-0.273-0.078-0.5-0.256-0.637-0.503
	c-0.014-0.024-0.019-0.051-0.021-0.078c0.328,0.242,0.773,0.292,1.143,0.084c0.512-0.287,0.696-0.937,0.408-1.45
	c-0.493-0.881-1.611-1.196-2.492-0.703c-1.127,0.631-1.531,2.062-0.9,3.189c0.421,0.745,1.103,1.282,1.922,1.512
	c0.819,0.232,1.681,0.13,2.427-0.287c1.953-1.095,2.212-3.735,2.192-5.211c-0.018-1.503,0.035-22.808,0.035-23.023
	c0.003-0.592-0.477-1.076-1.07-1.079C35.56,13.009,35.075,13.489,35.072,14.082L35.072,14.082z"/>
<path fill="#5B3E5A" d="M36.963,14.091c0,0-0.053,21.504-0.034,23.027c0.02,1.522-0.273,3.978-2.059,4.98
	c-0.686,0.383-1.476,0.476-2.23,0.263c-0.755-0.212-1.38-0.706-1.765-1.388c-0.561-1.003-0.202-2.274,0.799-2.835
	c0.756-0.423,1.715-0.153,2.139,0.603c0.216,0.387,0.079,0.879-0.309,1.096c-0.37,0.208-0.833,0.083-1.062-0.269
	c-0.204,0.135-0.282,0.4-0.161,0.617c0.172,0.308,0.453,0.53,0.794,0.627c0.34,0.095,0.696,0.053,1.005-0.119
	c1.118-0.626,1.29-1.527,1.395-3.118c0.104-1.592-0.143-23.492-0.143-23.492c0.003-0.45,0.369-0.813,0.82-0.811
	C36.602,13.274,36.965,13.641,36.963,14.091L36.963,14.091z"/>
<path fill="#5B3E5A" d="M13.005,22.06c-0.597,0-1.16,0.233-1.583,0.656c-0.423,0.423-0.656,0.986-0.656,1.584
	c0,1.235,1.004,2.239,2.239,2.239h10.449c1.235,0,2.24-1.004,2.24-2.239c0-0.598-0.233-1.161-0.656-1.584
	c-0.423-0.423-0.986-0.656-1.584-0.656H13.005L13.005,22.06z"/>
<path fill="#5B3E5A" d="M25.433,24.3c0,1.093-0.886,1.979-1.98,1.979H13.005c-1.091,0-1.978-0.886-1.978-1.979l0,0
	c0-1.093,0.887-1.979,1.978-1.979h10.449C24.547,22.321,25.433,23.207,25.433,24.3L25.433,24.3L25.433,24.3z"/>
<path fill="#5B3E5A" d="M11.254,23.881c-0.184,0.183-0.284,0.426-0.284,0.685v17.946c0,0.534,0.434,0.968,0.969,0.968
	c0.534,0,0.968-0.434,0.968-0.968V24.566c0-0.259-0.1-0.502-0.284-0.685c-0.183-0.183-0.426-0.284-0.685-0.284
	C11.68,23.597,11.437,23.698,11.254,23.881L11.254,23.881z"/>
<path fill="#5B3E5A" d="M12.647,42.512c0,0.391-0.317,0.708-0.708,0.708l0,0c-0.391,0-0.709-0.317-0.709-0.708V24.566
	c0-0.391,0.318-0.709,0.709-0.709l0,0c0.391,0,0.708,0.318,0.708,0.709V42.512L12.647,42.512z"/>
<path fill="#5B3E5A" d="M23.248,24.33v17.946c0,0.534,0.434,0.968,0.969,0.968c0.534,0,0.969-0.434,0.969-0.968V24.33
	c0-0.534-0.435-0.969-0.969-0.969C23.682,23.361,23.248,23.796,23.248,24.33L23.248,24.33z"/>
<path fill="#5B3E5A" d="M24.926,42.276c0,0.391-0.317,0.708-0.709,0.708l0,0c-0.391,0-0.708-0.317-0.708-0.708V24.33
	c0-0.391,0.317-0.708,0.708-0.708l0,0c0.392,0,0.709,0.317,0.709,0.708V42.276L24.926,42.276z"/>
<path fill="#5B3E5A" d="M24.12,9.784c-1.186,0-2.15,0.964-2.15,2.149v0.119c0,1.185,0.964,2.149,2.15,2.149h24.439
	c1.185,0,2.149-0.964,2.149-2.149v-0.119c0-0.574-0.224-1.113-0.63-1.519c-0.405-0.406-0.945-0.63-1.519-0.63H24.12L24.12,9.784z"/>
<path fill="#5B3E5A" d="M50.447,12.052c0,1.043-0.846,1.888-1.889,1.888H24.12c-1.044,0-1.889-0.845-1.889-1.888v-0.119
	c0-1.043,0.846-1.888,1.889-1.888h24.439c1.043,0,1.889,0.845,1.889,1.888V12.052L50.447,12.052z"/>
</svg>
