<?xml version="1.0" encoding="utf-8"?>
<!-- Generator: Adobe Illustrator 17.0.0, SVG Export Plug-In . SVG Version: 6.00 Build 0)  -->
<!DOCTYPE svg PUBLIC "-//W3C//DTD SVG 1.1//EN" "http://www.w3.org/Graphics/SVG/1.1/DTD/svg11.dtd">
<svg version="1.1" id="Layer_1" xmlns="http://www.w3.org/2000/svg" xmlns:xlink="http://www.w3.org/1999/xlink" x="0px" y="0px"
	 width="98.329px" height="101.273px" viewBox="0 0 98.329 101.273" enable-background="new 0 0 98.329 101.273"
	 xml:space="preserve">
<path fill="#E5E5E5" d="M37.924,55.392c-5.002-2.309-11.255-1.164-15.508,3.324L3.807,78.349l0.008,0.004l-0.139,0.153
	c-1.179,1.25-1.227,3.312-0.086,4.601c1.139,1.292,3.035,1.325,4.218,0.076l0.141-0.151l0.021,0.029l18.3-19.305
	c1.119-1.179,2.661-1.393,3.736-0.187c1.065,1.204,0.808,2.869-0.283,4.045c-0.007,0.006-0.017,0.009-0.027,0.02l-18.44,19.457
	c-1.181,1.249-1.219,3.314-0.086,4.599c1.149,1.299,3.037,1.323,4.218,0.074l0.134-0.148l0.031,0.022l18.298-19.302
	c1.11-1.183,2.668-1.406,3.735-0.199c1.068,1.22,0.81,2.903-0.303,4.083L18.985,95.526H18.98l-0.138,0.148
	c-1.182,1.255-1.22,3.317-0.079,4.604c1.144,1.299,3.034,1.327,4.213,0.08l18.748-19.807c4.48-4.476,6.734-10.437,5.159-15.461
	C45.525,60.748,42.93,57.7,37.924,55.392L37.924,55.392z M2.131,12.377l50.406,51.367c-1.951,8.892,2.507,21.267,8.906,27.793
	c5.01,5.108,13.204,8.674,20.346,8.674c1.759,0,3.453-0.215,5.02-0.677c2.298-0.674,4.325-1.881,5.872-3.702
	c6.942-8.137,1.938-25.568-6.104-33.759c-4.998-5.096-13.177-8.65-20.318-8.65c-1.757,0-3.456,0.216-5.029,0.678
	c-0.214,0.063-0.431,0.125-0.638,0.208L10.179,2.934C8.889,1.621,7.268,0.96,5.688,0.96c-0.53,0-1.055,0.074-1.563,0.223
	C3.144,1.477,2.227,2.052,1.49,2.903C-0.721,5.507-0.441,9.75,2.131,12.377L2.131,12.377z M96.136,11.074
	c2.509-2.647,3.055-6.492,0.639-9.226c-2.421-2.741-5.95-2.279-8.464,0.37L52.709,39.79l8.249,8.408L96.136,11.074L96.136,11.074z"
	/>
</svg>
