<?xml version="1.0" encoding="utf-8"?>
<!-- Generator: Adobe Illustrator 17.0.0, SVG Export Plug-In . SVG Version: 6.00 Build 0)  -->
<!DOCTYPE svg PUBLIC "-//W3C//DTD SVG 1.1//EN" "http://www.w3.org/Graphics/SVG/1.1/DTD/svg11.dtd">
<svg version="1.1" id="Layer_1" xmlns="http://www.w3.org/2000/svg" xmlns:xlink="http://www.w3.org/1999/xlink" x="0px" y="0px"
	 width="50.195px" height="50.202px" viewBox="0 0 50.195 50.202" enable-background="new 0 0 50.195 50.202" xml:space="preserve">
<path fill="#5B3E5A" d="M25.103,0C11.26,0,0,11.262,0,25.099c0,13.844,11.26,25.103,25.103,25.103
	c13.837,0,25.092-11.259,25.092-25.103C50.195,11.262,38.94,0,25.103,0L25.103,0z M25.103,47.774
	c-12.506,0-22.672-10.169-22.672-22.672c0-12.504,10.165-22.673,22.672-22.673c12.497,0,22.668,10.169,22.668,22.673
	C47.77,37.605,37.6,47.774,25.103,47.774L25.103,47.774z M40.453,25.079c0-0.903,0.735-1.631,1.63-1.631H44.2
	c-0.798-9.254-8.24-16.67-17.493-17.446v2.064c0,0.901-0.73,1.633-1.631,1.633c-0.903,0-1.639-0.732-1.639-1.633V6.002
	C14.212,6.796,6.801,14.214,6.005,23.448H8.06c0.901,0,1.629,0.728,1.629,1.631c0,0.9-0.728,1.634-1.629,1.634H6
	c0.779,9.243,8.196,16.681,17.436,17.483v-2.098c0-0.906,0.736-1.639,1.636-1.639c0.901,0,1.63,0.733,1.63,1.639v2.101
	c9.275-0.778,16.719-8.216,17.497-17.481h-2.117C41.187,26.718,40.453,25.984,40.453,25.079L40.453,25.079z M34.006,13.683
	l-8.626,11.686l5.574,6.616c0.283,0.331,0.418,0.75,0.384,1.188c-0.036,0.434-0.239,0.838-0.575,1.118
	c-0.299,0.249-0.664,0.381-1.05,0.381c-0.479,0-0.938-0.212-1.254-0.581l-6.48-7.716c-0.074-0.1-0.119-0.207-0.154-0.278
	c-0.04-0.092-0.085-0.187-0.105-0.291c-0.024-0.095-0.034-0.196-0.034-0.309c0-0.108,0-0.213,0.013-0.314
	c0.019-0.095,0.044-0.19,0.081-0.279c0.034-0.104,0.08-0.202,0.199-0.432l9.398-12.732c0.307-0.417,0.801-0.666,1.321-0.666
	c0.349,0,0.687,0.11,0.967,0.32C34.391,11.93,34.539,12.956,34.006,13.683L34.006,13.683z"/>
</svg>
