<?xml version="1.0" encoding="utf-8"?>
<!-- Generator: Adobe Illustrator 17.0.0, SVG Export Plug-In . SVG Version: 6.00 Build 0)  -->
<!DOCTYPE svg PUBLIC "-//W3C//DTD SVG 1.1//EN" "http://www.w3.org/Graphics/SVG/1.1/DTD/svg11.dtd">
<svg version="1.1" id="Layer_1" xmlns="http://www.w3.org/2000/svg" xmlns:xlink="http://www.w3.org/1999/xlink" x="0px" y="0px"
	 width="101.273px" height="101.273px" viewBox="0 0 101.273 101.273" enable-background="new 0 0 101.273 101.273"
	 xml:space="preserve">
<path fill="#E5E5E5" d="M50.637,100.137c27.338,0,49.5-22.161,49.5-49.5c0-27.338-22.161-49.5-49.5-49.5s-49.5,22.161-49.5,49.5
	C1.137,77.975,23.299,100.137,50.637,100.137L50.637,100.137z"/>
<path fill="none" stroke="#5B3E5A" stroke-width="3.6" stroke-linecap="round" stroke-linejoin="round" stroke-miterlimit="10" d="
	M19.812,65.372c6.294,9.609,17.378,15.988,30,15.988c12.549,0,23.576-6.304,29.89-15.82"/>
<path fill="#5B3E5A" d="M37.434,46.595c2.359,0,4.271-3.239,4.271-7.233s-1.912-7.232-4.271-7.232c-2.359,0-4.272,3.238-4.272,7.232
	S35.075,46.595,37.434,46.595L37.434,46.595z"/>
<path fill="#5B3E5A" d="M61.074,46.595c2.359,0,4.272-3.239,4.272-7.233s-1.913-7.232-4.272-7.232c-2.359,0-4.271,3.238-4.271,7.232
	S58.716,46.595,61.074,46.595L61.074,46.595z"/>
</svg>
