<?xml version="1.0" encoding="utf-8"?>
<!-- Generator: Adobe Illustrator 17.0.0, SVG Export Plug-In . SVG Version: 6.00 Build 0)  -->
<!DOCTYPE svg PUBLIC "-//W3C//DTD SVG 1.1//EN" "http://www.w3.org/Graphics/SVG/1.1/DTD/svg11.dtd">
<svg version="1.1" id="Layer_1" xmlns="http://www.w3.org/2000/svg" xmlns:xlink="http://www.w3.org/1999/xlink" x="0px" y="0px"
	 width="116.15px" height="85.601px" viewBox="0 0 116.15 85.601" enable-background="new 0 0 116.15 85.601" xml:space="preserve">
<path fill="#FFFFFF" d="M38.921,15.992l-38.616,38.6c21.33,21.34,55.906,21.34,77.223,0l38.622-38.6
	C94.803-5.331,60.242-5.331,38.921,15.992L38.921,15.992z"/>
<path fill="#5B3E5A" d="M23.172,31.442L0,54.602c12.8,12.8,33.545,12.8,46.335,0l23.173-23.16
	C56.7,18.651,35.964,18.651,23.172,31.442L23.172,31.442z"/>
<path fill="#5B3E5A" d="M89.872,16.277c-1.494,1.494-3.926,1.494-5.401,0.009c-1.496-1.493-1.496-3.92,0-5.41
	c1.475-1.493,3.907-1.493,5.401,0C91.365,12.366,91.365,14.794,89.872,16.277L89.872,16.277z"/>
<polygon fill="#5B3E5A" points="47.816,85.601 53.358,85.601 53.358,55.851 47.816,55.851 47.816,85.601 "/>
<path fill="#5B3E5A" d="M63.32,68.762l12.942-12.91h-7.579l-11.235,11.11l-0.401,0.45c-0.792,0.87-1.275,2.05-1.275,3.31
	c0,1.27,0.483,2.45,1.275,3.32l0.401,0.45l11.235,11.11h7.579l-13.09-13.06l-0.682-0.68c-0.291-0.29-0.471-0.69-0.471-1.14
	c0-0.44,0.18-0.84,0.471-1.13L63.32,68.762L63.32,68.762z"/>
</svg>
