<?xml version="1.0" encoding="utf-8"?>
<!-- Generator: Adobe Illustrator 17.0.0, SVG Export Plug-In . SVG Version: 6.00 Build 0)  -->
<!DOCTYPE svg PUBLIC "-//W3C//DTD SVG 1.1//EN" "http://www.w3.org/Graphics/SVG/1.1/DTD/svg11.dtd">
<svg version="1.1" id="Layer_1" xmlns="http://www.w3.org/2000/svg" xmlns:xlink="http://www.w3.org/1999/xlink" x="0px" y="0px"
	 width="128.667px" height="97.67px" viewBox="0 0 128.667 97.67" enable-background="new 0 0 128.667 97.67" xml:space="preserve">
<path fill="#FFFFFF" d="M70.632,2.481l-0.055,0.055c-3.073,3.073-3.326,7.802-0.564,10.563l16.169,16.167L24.57,29.267
	c-4.507,0-8.161,3.394-8.161,7.576v0.075c0,4.182,3.654,7.572,8.161,7.572l40.48-0.001l0.794,0.001
	c-0.021,0-0.042,0.063-0.063,0.095c0.613,0.166,1.04,0.534,1.04,0.96v0.068c0,0.582-0.792,1.051-1.77,1.051H8.498
	C3.804,46.664,0,50.189,0,54.536v0.077c0,4.346,3.804,7.867,8.498,7.867h55.564c0.978,0,1.771,0.474,1.771,1.055l-0.001,0.068
	c0,0.583-0.792,1.052-1.77,1.052H17.29c-4.745,0-8.591,3.436-8.591,7.674v0.076c0,3.643,2.844,6.681,6.656,7.472h49.3
	c0.978,0,1.771,0.474,1.771,1.055L66.425,81c0,0.366-0.314,0.688-0.791,0.877c0.038,0.059,0.077,0.174,0.116,0.174h-1.095
	l-28.318,0.001c-4.346,0-7.869,3.466-7.869,7.74v0.142c0,4.274,3.523,7.736,7.869,7.736l59.584-0.001
	c0.715,0.001,1.408-0.093,2.067-0.269c17.236-1.782,30.679-16.348,30.679-34.056c0.001-13.071-8.651-22.929-17.468-31.455
	c-8.027-7.764-15.678-15.896-23.686-23.68c-2.133-2.074-4.216-4.191-6.318-6.292C78.435-0.845,73.705-0.593,70.632,2.481
	L70.632,2.481z"/>
<path fill="#FEBF3B" d="M97.4,77.728c-1.22,1.034-2.915,1.552-5.084,1.552c-1.884,0-3.482-0.551-4.794-1.653
	c-1.312-1.101-1.968-2.947-1.968-5.538H80.76l-0.05,0.126c-0.067,3.499,0.824,6.152,2.674,7.96c1.85,1.809,4.222,2.864,7.115,3.167
	v4.819h3.961v-4.845c3.028-0.319,5.408-1.332,7.14-3.04c1.732-1.707,2.599-4.007,2.599-6.9c0-2.842-0.833-5.092-2.498-6.749
	c-1.665-1.657-4.213-3.04-7.644-4.15c-2.658-0.909-4.5-1.867-5.526-2.877c-1.026-1.009-1.539-2.329-1.539-3.961
	c0-1.799,0.496-3.216,1.489-4.251c0.992-1.034,2.481-1.552,4.465-1.552c1.867,0,3.331,0.665,4.39,1.994
	c1.06,1.329,1.59,3.061,1.59,5.197h4.945c0-3.246-0.778-5.836-2.334-7.771c-1.556-1.934-3.738-3.086-6.547-3.456v-5.601h-3.986
	v5.575c-2.792,0.354-4.987,1.405-6.585,3.154c-1.598,1.75-2.397,4.012-2.397,6.787c0,2.86,0.866,5.147,2.599,6.863
	c1.732,1.715,4.297,3.086,7.695,4.112c2.472,0.841,4.242,1.796,5.311,2.864c1.067,1.068,1.602,2.359,1.602,3.872
	C99.229,75.26,98.619,76.694,97.4,77.728L97.4,77.728z"/>
</svg>
