<?xml version="1.0" encoding="utf-8"?>
<!-- Generator: Adobe Illustrator 17.0.0, SVG Export Plug-In . SVG Version: 6.00 Build 0)  -->
<!DOCTYPE svg PUBLIC "-//W3C//DTD SVG 1.1//EN" "http://www.w3.org/Graphics/SVG/1.1/DTD/svg11.dtd">
<svg version="1.1" id="Layer_1" xmlns="http://www.w3.org/2000/svg" xmlns:xlink="http://www.w3.org/1999/xlink" x="0px" y="0px"
	 width="98.878px" height="101.273px" viewBox="0 0 98.878 101.273" enable-background="new 0 0 98.878 101.273"
	 xml:space="preserve">
<path fill="#E5E5E5" d="M66.999,0.016c-3.153-0.136-6.945,0.61-10.905,2.322c-7.241,3.128-12.953,8.567-14.817,13.582
	c2.333-0.622,4.797-1.475,7.327-2.567C56.731,9.842,63.509,4.759,66.999,0.016L66.999,0.016z M96.902,74.85
	c-2.493-1.698-6.882-1.59-10.161,0.035c-0.353-1.102-0.274-2.474,0.511-4.217c0.793-1.812,1.315-3.565,1.595-5.252
	c1.132-0.195,2.24-0.624,3.236-1.335c3.572-2.549,4.369-7.547,1.784-11.165c-1.849-2.594-4.935-3.764-7.852-3.286
	c0.149,0.186,0.304,0.362,0.444,0.557c2.895,4.052,3.685,8.96,2.593,13.41c1.207-18.821-28.337-28.887-46.885-23.822
	c-8.006,2.187-19.996,6.096-21.876,10.987c-0.293,0.761-0.61,1.504-0.926,2.226c-4.079-2.828-8.576-4.682-13.084-5.555
	c-0.457-0.079-0.892-0.104-1.306-0.086c-0.284-0.119-0.596-0.215-0.963-0.261c-1.93-0.253-3.951,1.09-3.988,2.762
	c-0.195,3.082,0.817,6.206,2.571,8.928c0.984,1.467,2.691,1.833,3.745,1.294c0.576-0.294,0.917-0.74,1.023-1.275
	c4.047,1.85,7.855,4.876,10.726,9.141c1.826,2.717,4.936,3.485,7.192,0.489c0.646-0.843,1.067-1.906,1.285-3.052
	c0.505,0.071,1.027,0.137,1.583,0.198c15.143,1.665,30.62,4.987,35.227,20.888c1.473,5.086,5.967,5.365,11.363,3.789
	c-0.743,1.763-1.344,3.539-1.784,5.309c-0.817,3.62,1.729,5.803,4.702,5.714c3.013-0.091,5.492-1.836,6.542-4.613
	c1.998-5.268,5.95-10.496,11.851-14.403C99.12,80.223,100.106,76.991,96.902,74.85L96.902,74.85z M20.095,40.344
	c11.123,3.944,17.712-0.533,21.011-2.652c3.962-2.544,5.924-6.021,6.387-9.479c3.799-1.144,8.247-3.4,13.885-5.904
	c7.421-3.42,15.058-6.164,18.896-9.901c-6.251-3.942-16.665-5.107-24.739-1.062c-4.769,2.32-7.807,5.738-9.488,9.312
	c-0.556-0.98-1.233-1.879-2.043-2.641c-5.003-4.701-14.41-3.514-21.013,2.653C16.39,26.834,13.45,37.987,20.095,40.344
	L20.095,40.344z"/>
</svg>
