<?xml version="1.0" encoding="utf-8"?>
<!-- Generator: Adobe Illustrator 17.0.0, SVG Export Plug-In . SVG Version: 6.00 Build 0)  -->
<!DOCTYPE svg PUBLIC "-//W3C//DTD SVG 1.1//EN" "http://www.w3.org/Graphics/SVG/1.1/DTD/svg11.dtd">
<svg version="1.1" id="Layer_1" xmlns="http://www.w3.org/2000/svg" xmlns:xlink="http://www.w3.org/1999/xlink" x="0px" y="0px"
	 width="49.442px" height="46.498px" viewBox="0 0 49.442 46.498" enable-background="new 0 0 49.442 46.498" xml:space="preserve">
<path fill="#5B3E5A" d="M39.761,8.761c-0.594,0-1.172,0.062-1.736,0.164C36.277,3.739,31.384,0,25.609,0
	c-5.219,0-9.712,3.058-11.822,7.473c-1.125-0.429-2.341-0.674-3.617-0.674C4.553,6.799,0,11.352,0,16.969
	c0,5.616,4.553,10.17,10.17,10.17c0.979,0,1.921-0.146,2.817-0.405v15.692c0,2.249,2.304,4.072,5.146,4.072h15.929
	c2.842,0,5.146-1.823,5.146-4.072V28.093c0.184,0.01,0.366,0.028,0.553,0.028c5.347,0,9.68-4.334,9.68-9.68
	C49.442,13.095,45.108,8.761,39.761,8.761L39.761,8.761z M36.832,26.749c-0.995,0-1.944-0.194-2.819-0.535v13.755
	c0,1.678-1.718,3.037-3.838,3.037h-11.88c-2.12,0-3.838-1.359-3.838-3.037V26.315c-0.826,0.29-1.71,0.456-2.634,0.456
	c-4.398,0-7.964-3.566-7.964-7.964c0-4.399,3.566-7.965,7.964-7.965c1.221,0,2.373,0.283,3.408,0.774
	c1.849-3.842,5.767-6.5,10.316-6.5c4.425,0,8.257,2.513,10.165,6.185c0.367-0.053,0.738-0.089,1.12-0.089
	c4.291,0,7.769,3.478,7.769,7.769C44.601,23.271,41.123,26.749,36.832,26.749L36.832,26.749z"/>
</svg>
