<?xml version="1.0" encoding="utf-8"?>
<!-- Generator: Adobe Illustrator 17.0.0, SVG Export Plug-In . SVG Version: 6.00 Build 0)  -->
<!DOCTYPE svg PUBLIC "-//W3C//DTD SVG 1.1//EN" "http://www.w3.org/Graphics/SVG/1.1/DTD/svg11.dtd">
<svg version="1.1" id="Layer_1" xmlns="http://www.w3.org/2000/svg" xmlns:xlink="http://www.w3.org/1999/xlink" x="0px" y="0px"
	 width="45.393px" height="59.738px" viewBox="48.526 43.812 45.393 59.738" enable-background="new 48.526 43.812 45.393 59.738"
	 xml:space="preserve">
<path fill="#5B3E5A" d="M56.497,43.812c4.357,0,7.915,3.562,7.915,7.875v7.701h21.6c4.364,0,7.907,3.506,7.907,7.819
	c0,4.377-3.543,7.898-7.907,7.898h-21.6v11.318c0,0.918,0.263,1.456,1.102,1.456h20.498c4.364,0,7.907,3.506,7.907,7.835
	c0,4.322-3.543,7.836-7.907,7.836H66.439c-0.239,0-0.415-0.016-0.59-0.016c-11.642-0.285-17.323-7.63-17.323-17.602
	c0-0.063,0-0.245,0-0.348V51.687C48.526,47.374,52.125,43.812,56.497,43.812L56.497,43.812L56.497,43.812z"/>
</svg>
