<?xml version="1.0" encoding="utf-8"?>
<!-- Generator: Adobe Illustrator 17.0.0, SVG Export Plug-In . SVG Version: 6.00 Build 0)  -->
<!DOCTYPE svg PUBLIC "-//W3C//DTD SVG 1.1//EN" "http://www.w3.org/Graphics/SVG/1.1/DTD/svg11.dtd">
<svg version="1.1" id="Layer_1" xmlns="http://www.w3.org/2000/svg" xmlns:xlink="http://www.w3.org/1999/xlink" x="0px" y="0px"
	 width="50.078px" height="101.639px" viewBox="0 0 50.078 101.639" enable-background="new 0 0 50.078 101.639"
	 xml:space="preserve">
<path fill="#5B3E5A" d="M22.603,17.128v26.42c-4.186-1.139-7.166-2.344-8.941-3.616c-3.081-2.177-4.621-5.358-4.621-9.544
	c0-2.645,0.57-4.972,1.708-6.982C12.926,19.489,16.877,17.396,22.603,17.128L22.603,17.128L22.603,17.128z M39.63,65.598
	c0,2.746-0.936,5.375-2.81,7.886c-1.875,2.512-5.022,3.851-9.446,4.019V53.895c3.749,0.736,6.728,2.042,8.939,3.918
	C38.525,59.688,39.63,62.283,39.63,65.598L39.63,65.598L39.63,65.598z M48.671,64.996c0-5.693-1.732-10.147-5.198-13.361
	c-3.465-3.215-8.831-5.509-16.099-6.881V17.379c5.667,0.469,9.547,2.595,11.638,6.379c1.18,2.11,1.905,5.458,2.175,10.046h8.891
	c0-5.76-0.955-10.331-2.863-13.713c-3.483-6.262-10.096-9.71-19.841-10.347V0h-4.771v9.744c-6.061,0.671-10.699,2.043-13.914,4.119
	C2.897,17.613,0,23.942,0,32.849c0,6.161,2.26,10.816,6.781,13.964c2.779,1.909,8.053,3.951,15.822,6.128v24.461
	c-4.621-0.168-7.987-1.942-10.096-5.324c-1.138-1.842-1.825-4.036-2.06-6.58h-8.79C1.825,71.175,3.692,75.743,7.258,79.2
	c3.566,3.456,8.681,5.419,15.345,5.887v6.58h4.771v-6.68c6.731-0.068,11.963-2.144,15.697-6.229
	C46.805,74.672,48.671,70.085,48.671,64.996L48.671,64.996L48.671,64.996z"/>
<polygon fill="#5B3E5A" points="30.377,91.517 18.996,91.517 24.686,101.639 30.377,91.517 "/>
</svg>
