<?xml version="1.0" encoding="utf-8"?>
<!-- Generator: Adobe Illustrator 17.0.0, SVG Export Plug-In . SVG Version: 6.00 Build 0)  -->
<!DOCTYPE svg PUBLIC "-//W3C//DTD SVG 1.1//EN" "http://www.w3.org/Graphics/SVG/1.1/DTD/svg11.dtd">
<svg version="1.1" id="Layer_1" xmlns="http://www.w3.org/2000/svg" xmlns:xlink="http://www.w3.org/1999/xlink" x="0px" y="0px"
	 width="36.3px" height="50.82px" viewBox="0 0 36.3 50.82" enable-background="new 0 0 36.3 50.82" xml:space="preserve">
<path fill="#FFFFFF" d="M18.15,0C8.125,0,0,8.125,0,18.15c0,5.08,2.557,9.249,5.448,12.963c2.174,2.798,9.909,10.772,9.909,14.959
	v1.955c0,1.542,1.254,2.793,2.793,2.793c1.543,0,2.793-1.251,2.793-2.793v-1.955c0-4.187,8.04-12.767,9.907-14.957
	c3.061-3.58,5.45-7.885,5.45-12.965C36.3,8.125,28.175,0,18.15,0L18.15,0z M18.15,32.67c-8.023,0-14.52-6.5-14.52-14.52
	c0-8.02,6.497-14.52,14.52-14.52s14.52,6.5,14.52,14.52C32.67,26.17,26.173,32.67,18.15,32.67L18.15,32.67z M18.15,9.68
	c-4.678,0-8.47,3.791-8.47,8.47c0,4.676,3.792,8.47,8.47,8.47s8.47-3.794,8.47-8.47C26.62,13.471,22.828,9.68,18.15,9.68L18.15,9.68
	z"/>
</svg>
