<?xml version="1.0" encoding="utf-8"?>
<!-- Generator: Adobe Illustrator 17.0.0, SVG Export Plug-In . SVG Version: 6.00 Build 0)  -->
<!DOCTYPE svg PUBLIC "-//W3C//DTD SVG 1.1//EN" "http://www.w3.org/Graphics/SVG/1.1/DTD/svg11.dtd">
<svg version="1.1" id="Layer_1" xmlns="http://www.w3.org/2000/svg" xmlns:xlink="http://www.w3.org/1999/xlink" x="0px" y="0px"
	 width="38.246px" height="43.889px" viewBox="0 0 38.246 43.889" enable-background="new 0 0 38.246 43.889" xml:space="preserve">
<path fill="#5B3E5A" d="M38.246,3.795C38.246,1.7,29.683,0,19.123,0C8.561,0,0,1.7,0,3.795c0,0.199,0.078,0.394,0.225,0.584H0.027
	l9.548,6.972l7.893,5.764v21.174l-3.083,1.351l-2.787,1.222c-0.874,0.227-1.5,0.492-1.785,0.783l-0.165,0.072h0.109
	c-0.073,0.095-0.123,0.19-0.123,0.289c0,1.04,4.248,1.883,9.489,1.883c5.24,0,9.489-0.843,9.489-1.883
	c0-0.099-0.049-0.194-0.123-0.289h0.109l-0.164-0.072c-0.285-0.291-0.912-0.556-1.786-0.783L23.86,39.64l-3.083-1.351V17.114
	l7.892-5.763l9.548-6.972H38.02C38.168,4.189,38.246,3.994,38.246,3.795L38.246,3.795z M19.123,6.325
	c-9.432,0-17.079-1.133-17.079-2.53c0-1.397,7.647-2.53,17.079-2.53c9.433,0,17.079,1.133,17.079,2.53
	C36.202,5.192,28.555,6.325,19.123,6.325L19.123,6.325z"/>
</svg>
