<?xml version="1.0" encoding="utf-8"?>
<!-- Generator: Adobe Illustrator 17.0.0, SVG Export Plug-In . SVG Version: 6.00 Build 0)  -->
<!DOCTYPE svg PUBLIC "-//W3C//DTD SVG 1.1//EN" "http://www.w3.org/Graphics/SVG/1.1/DTD/svg11.dtd">
<svg version="1.1" id="Layer_1" xmlns="http://www.w3.org/2000/svg" xmlns:xlink="http://www.w3.org/1999/xlink" x="0px" y="0px"
	 width="69.145px" height="101.273px" viewBox="0 0 69.145 101.273" enable-background="new 0 0 69.145 101.273"
	 xml:space="preserve">
<path fill="#5B3E5A" d="M5.261,18.696v72.839h8.178V18.696H5.261L5.261,18.696z M19.19,19.766v47.518h2.208V19.766H19.19
	L19.19,19.766z M3.535,93.483L0,101.273h18.796l-3.392-7.79H3.535L3.535,93.483z M64.473,25.457
	c-4.234-1.839-7.281,0.448-10.574,2.92c-1.776,1.331-3.678,2.759-5.141,2.615c-1.411-0.143-2.042-2.264-3.214-6.195l-0.373-1.247
	c-2.608-8.645-5.977-13.993-11.34-17.388c-4.025-2.544-8.973-3.803-15.434-4.402L18.796,0H0l3.392,15.579h11.871l0.396-1.745
	c9.538-0.049,18.247-0.949,22.099,11.815l0.373,1.247c2.082,6.991,3.576,10.398,9.909,11.031c4.287,0.429,7.376-1.523,10.256-3.686
	c9.214-6.881,6.903-2.754,0.637,3.245l-41.62,40.508l0.324,11.717l3.678,8.223l43.426-55.963c1.828-2.352,3.505-5.058,4.107-7.632
	C69.723,30.601,68.779,27.33,64.473,25.457L64.473,25.457z M39.13,37.976v13.631h2.208V37.976H39.13L39.13,37.976z M25.594,19.766
	v43.331h2.209V19.766H25.594L25.594,19.766z M32.41,22.393v35.643h2.208V22.393H32.41L32.41,22.393z"/>
</svg>
