<?xml version="1.0" encoding="utf-8"?>
<!-- Generator: Adobe Illustrator 17.0.0, SVG Export Plug-In . SVG Version: 6.00 Build 0)  -->
<!DOCTYPE svg PUBLIC "-//W3C//DTD SVG 1.1//EN" "http://www.w3.org/Graphics/SVG/1.1/DTD/svg11.dtd">
<svg version="1.1" id="Layer_1" xmlns="http://www.w3.org/2000/svg" xmlns:xlink="http://www.w3.org/1999/xlink" x="0px" y="0px"
	 width="28.6px" height="52.91px" viewBox="0 0 28.6 52.91" enable-background="new 0 0 28.6 52.91" xml:space="preserve">
<polygon fill="#5B3E5A" points="17.274,4.701 17.263,4.716 17.304,4.71 17.274,4.701 "/>
<polygon fill="#5B3E5A" points="1.822,35.321 6.972,33.529 9.949,26.96 12.684,11.493 0,30.262 1.822,35.321 "/>
<polygon fill="#5B3E5A" points="22.893,10.683 14.916,10.683 9.061,43.786 18.831,52.91 28.6,43.786 22.893,10.683 "/>
<path fill="#5B3E5A" d="M15.672,8.658h6.645c1.335,0,2.424-1.072,2.424-2.382V2.381c0-1.31-1.089-2.381-2.424-2.381h-6.645
	c-1.333,0-2.424,1.071-2.424,2.381v3.895C13.248,7.586,14.339,8.658,15.672,8.658L15.672,8.658z"/>
</svg>
