<?xml version="1.0" encoding="utf-8"?>
<!-- Generator: Adobe Illustrator 17.0.0, SVG Export Plug-In . SVG Version: 6.00 Build 0)  -->
<!DOCTYPE svg PUBLIC "-//W3C//DTD SVG 1.1//EN" "http://www.w3.org/Graphics/SVG/1.1/DTD/svg11.dtd">
<svg version="1.1" id="Layer_1" xmlns="http://www.w3.org/2000/svg" xmlns:xlink="http://www.w3.org/1999/xlink" x="0px" y="0px"
	 width="143.625px" height="143.625px" viewBox="0 0 143.625 143.625" enable-background="new 0 0 143.625 143.625"
	 xml:space="preserve">
<path fill="#5B3E5A" d="M71.812,143.625c39.661,0,71.813-32.152,71.813-71.812C143.625,32.152,111.473,0,71.812,0S0,32.152,0,71.813
	C0,111.473,32.151,143.625,71.812,143.625L71.812,143.625z"/>
<g enable-background="new    ">
	<path fill="#FFFFFF" d="M43.957,77.807h6.934v1.504h-8.857V65.092h1.924V77.807z"/>
	<path fill="#FFFFFF" d="M63.253,73.471c0,1.738-0.539,3.181-1.616,4.326s-2.476,1.719-4.194,1.719c-1.66,0-3.009-0.573-4.048-1.719
		s-1.558-2.588-1.558-4.326v-2.529c0-1.731,0.519-3.174,1.558-4.326s2.388-1.729,4.048-1.729c1.719,0,3.117,0.574,4.194,1.724
		s1.616,2.593,1.616,4.331V73.471z M61.33,70.922c0-1.302-0.352-2.37-1.055-3.203s-1.647-1.25-2.832-1.25
		c-1.12,0-2.013,0.417-2.681,1.25s-1.001,1.901-1.001,3.203v2.549c0,1.315,0.333,2.39,1.001,3.223s1.561,1.25,2.681,1.25
		c1.191,0,2.137-0.415,2.837-1.245s1.05-1.906,1.05-3.228V70.922z"/>
</g>
<g enable-background="new    ">
	<path fill="#FFFFFF" d="M76.255,77.396c-0.338,0.527-0.926,1.013-1.763,1.455c-0.836,0.442-1.922,0.664-3.256,0.664
		c-1.641,0-2.998-0.544-4.072-1.631s-1.611-2.493-1.611-4.219v-2.93c0-1.726,0.518-3.132,1.553-4.219s2.37-1.631,4.004-1.631
		c1.582,0,2.832,0.422,3.75,1.265s1.364,1.916,1.338,3.218l-0.02,0.059h-1.846c0-0.866-0.279-1.587-0.84-2.163
		c-0.56-0.576-1.354-0.864-2.382-0.864c-1.087,0-1.963,0.407-2.627,1.221s-0.996,1.846-0.996,3.096v2.949
		c0,1.263,0.352,2.303,1.055,3.12s1.602,1.226,2.695,1.226c0.84,0,1.505-0.109,1.997-0.327c0.492-0.218,0.858-0.477,1.099-0.776
		v-3.203h-3.222v-1.504h5.146V77.396z"/>
	<path fill="#FFFFFF" d="M86.675,79.311h-1.934V65.092h1.934V79.311z"/>
	<path fill="#FFFFFF" d="M100.952,79.311h-1.924l-6.846-10.859l-0.059,0.02v10.84H90.2V65.092h1.924l6.846,10.85l0.059-0.02v-10.83
		h1.924V79.311z"/>
</g>
</svg>
