<?xml version="1.0" encoding="utf-8"?>
<!-- Generator: Adobe Illustrator 17.0.0, SVG Export Plug-In . SVG Version: 6.00 Build 0)  -->
<!DOCTYPE svg PUBLIC "-//W3C//DTD SVG 1.1//EN" "http://www.w3.org/Graphics/SVG/1.1/DTD/svg11.dtd">
<svg version="1.1" id="Layer_1" xmlns="http://www.w3.org/2000/svg" xmlns:xlink="http://www.w3.org/1999/xlink" x="0px" y="0px"
	 width="143.625px" height="143.625px" viewBox="0 0 143.625 143.625" enable-background="new 0 0 143.625 143.625"
	 xml:space="preserve">
<g>
	<path fill="#5B3E5A" d="M71.812,143.625c39.661,0,71.813-32.152,71.813-71.812C143.625,32.152,111.473,0,71.812,0
		S0,32.152,0,71.813C0,111.473,32.151,143.625,71.812,143.625L71.812,143.625z"/>
	<g enable-background="new    ">
		<path fill="#FFFFFF" d="M42.369,75.727c0-0.645-0.231-1.185-0.693-1.621s-1.276-0.808-2.441-1.113
			c-1.445-0.358-2.573-0.886-3.384-1.582s-1.216-1.572-1.216-2.627c0-1.113,0.436-2.041,1.309-2.783s2.005-1.113,3.398-1.113
			c1.498,0,2.69,0.425,3.579,1.274s1.32,1.841,1.294,2.974l-0.029,0.059h-1.836c0-0.808-0.282-1.475-0.845-2.002
			S40.22,66.4,39.341,66.4c-0.898,0-1.587,0.218-2.065,0.654s-0.718,1.003-0.718,1.699c0,0.618,0.262,1.135,0.786,1.548
			s1.375,0.776,2.554,1.089c1.432,0.371,2.523,0.918,3.271,1.641s1.123,1.614,1.123,2.676c0,1.146-0.451,2.067-1.353,2.764
			s-2.079,1.045-3.53,1.045c-1.374,0-2.586-0.384-3.638-1.152s-1.561-1.797-1.528-3.086l0.02-0.059h1.836
			c0,0.892,0.338,1.58,1.016,2.065s1.442,0.728,2.295,0.728c0.912,0,1.632-0.205,2.163-0.615S42.369,76.43,42.369,75.727z"/>
		<path fill="#FFFFFF" d="M49.146,79.311h-1.934V65.092h1.934V79.311z"/>
		<path fill="#FFFFFF" d="M62.896,77.396c-0.338,0.527-0.926,1.013-1.763,1.455s-1.922,0.664-3.257,0.664
			c-1.641,0-2.998-0.544-4.072-1.631s-1.611-2.493-1.611-4.219v-2.93c0-1.726,0.518-3.132,1.553-4.219s2.37-1.631,4.004-1.631
			c1.582,0,2.832,0.422,3.75,1.265s1.364,1.916,1.338,3.218l-0.02,0.059h-1.846c0-0.866-0.28-1.587-0.84-2.163
			S58.778,66.4,57.75,66.4c-1.087,0-1.963,0.407-2.627,1.221s-0.996,1.846-0.996,3.096v2.949c0,1.263,0.352,2.303,1.055,3.12
			s1.602,1.226,2.695,1.226c0.84,0,1.505-0.109,1.997-0.327s0.858-0.477,1.099-0.776v-3.203H57.75v-1.504h5.146V77.396z"/>
		<path fill="#FFFFFF" d="M76.968,79.311h-1.924l-6.845-10.859l-0.059,0.02v10.84h-1.924V65.092h1.924l6.845,10.85l0.059-0.02
			v-10.83h1.924V79.311z"/>
		<path fill="#FFFFFF" d="M95.757,65.092v9.443c0,1.563-0.508,2.783-1.523,3.662s-2.324,1.318-3.926,1.318
			c-1.543,0-2.806-0.441-3.789-1.323c-0.982-0.882-1.475-2.102-1.475-3.657v-9.443h1.924v9.443c0,1.087,0.312,1.938,0.933,2.554
			c0.622,0.615,1.425,0.923,2.407,0.923c1.042,0,1.89-0.308,2.544-0.923s0.981-1.467,0.981-2.554v-9.443H95.757z"/>
		<path fill="#FFFFFF" d="M100.728,73.607v5.703h-1.924V65.092h5.439c1.518,0,2.697,0.391,3.54,1.172
			c0.844,0.781,1.265,1.81,1.265,3.086c0,1.289-0.421,2.321-1.265,3.096c-0.843,0.774-2.022,1.162-3.54,1.162H100.728z
			 M100.728,72.104h3.516c0.964,0,1.684-0.259,2.158-0.776c0.476-0.518,0.713-1.17,0.713-1.958s-0.239-1.445-0.718-1.973
			s-1.196-0.791-2.153-0.791h-3.516V72.104z"/>
	</g>
</g>
</svg>
