<?xml version="1.0" encoding="utf-8"?>
<!-- Generator: Adobe Illustrator 17.0.0, SVG Export Plug-In . SVG Version: 6.00 Build 0)  -->
<!DOCTYPE svg PUBLIC "-//W3C//DTD SVG 1.1//EN" "http://www.w3.org/Graphics/SVG/1.1/DTD/svg11.dtd">
<svg version="1.1" id="Layer_1" xmlns="http://www.w3.org/2000/svg" xmlns:xlink="http://www.w3.org/1999/xlink" x="0px" y="0px"
	 width="120.661px" height="61.884px" viewBox="0 0 120.661 61.884" enable-background="new 0 0 120.661 61.884"
	 xml:space="preserve">
<path fill="#FFFFFF" d="M0,6.854L0,6.854C0,3.069,3.069,0,6.854,0H20.11h30.165h63.531c1.818,0,3.561,0.722,4.847,2.008
	s2.008,3.029,2.008,4.847V23.99v10.281c0,3.786-3.069,6.854-6.854,6.854H50.276L3.956,61.884L20.11,41.126H6.854
	C3.069,41.126,0,38.057,0,34.272V23.99V6.854z"/>
<g>
	<path fill="#5C4155" d="M33.227,13.996c0,1.179-0.32,2.079-0.959,2.702c-0.64,0.624-1.56,0.936-2.761,0.936h-1.978v-7.139h2.188
		c1.11,0,1.973,0.308,2.588,0.923S33.227,12.893,33.227,13.996z M32.348,14.026c0-0.931-0.233-1.633-0.701-2.104
		s-1.161-0.708-2.083-0.708h-1.206v5.703h1.011c0.99,0,1.733-0.243,2.231-0.729C32.099,15.699,32.348,14.98,32.348,14.026z"/>
	<path fill="#5C4155" d="M39.316,14.953c0,0.872-0.22,1.554-0.659,2.044c-0.439,0.489-1.046,0.734-1.821,0.734
		c-0.479,0-0.903-0.112-1.274-0.337s-0.658-0.547-0.859-0.967s-0.303-0.911-0.303-1.475c0-0.872,0.218-1.552,0.654-2.038
		c0.436-0.487,1.042-0.73,1.816-0.73c0.749,0,1.344,0.249,1.785,0.747S39.316,14.104,39.316,14.953z M35.239,14.953
		c0,0.684,0.137,1.204,0.41,1.563s0.675,0.537,1.206,0.537s0.934-0.179,1.208-0.534c0.275-0.357,0.413-0.879,0.413-1.565
		c0-0.681-0.138-1.197-0.413-1.55c-0.275-0.354-0.681-0.53-1.218-0.53c-0.531,0-0.931,0.174-1.201,0.522
		S35.239,14.263,35.239,14.953z"/>
	<path fill="#5C4155" d="M44.399,17.634v-3.462c0-0.437-0.099-0.762-0.298-0.977s-0.509-0.322-0.933-0.322
		c-0.56,0-0.97,0.151-1.23,0.454s-0.391,0.803-0.391,1.499v2.808h-0.811v-5.352h0.659l0.132,0.732h0.039
		c0.166-0.264,0.399-0.468,0.698-0.613c0.299-0.145,0.633-0.217,1.001-0.217c0.645,0,1.129,0.155,1.455,0.467
		c0.326,0.311,0.488,0.808,0.488,1.491v3.491H44.399z"/>
	<path fill="#5C4155" d="M47.524,10.495l0.073,0.107c-0.084,0.325-0.207,0.704-0.366,1.135c-0.16,0.432-0.326,0.833-0.498,1.204
		h-0.596c0.228-0.928,0.394-1.743,0.498-2.446H47.524z"/>
	<path fill="#5C4155" d="M50.302,17.063c0.143,0,0.282-0.011,0.415-0.032c0.133-0.021,0.239-0.043,0.317-0.065v0.62
		c-0.088,0.042-0.217,0.077-0.388,0.105c-0.171,0.027-0.325,0.041-0.461,0.041c-1.035,0-1.553-0.545-1.553-1.636v-3.184h-0.767
		v-0.391l0.767-0.337l0.342-1.143h0.469v1.24h1.553v0.63h-1.553v3.149c0,0.322,0.077,0.569,0.229,0.742S50.035,17.063,50.302,17.063
		z"/>
	<path fill="#5C4155" d="M57.114,12.912h-1.362v4.722h-0.811v-4.722h-0.957v-0.366l0.957-0.293v-0.298
		c0-1.315,0.574-1.973,1.724-1.973c0.283,0,0.615,0.057,0.996,0.171l-0.21,0.649c-0.313-0.101-0.579-0.151-0.801-0.151
		c-0.306,0-0.532,0.102-0.679,0.305c-0.146,0.204-0.22,0.53-0.22,0.979v0.347h1.362V12.912z"/>
	<path fill="#5C4155" d="M62.709,14.953c0,0.872-0.22,1.554-0.659,2.044c-0.439,0.489-1.047,0.734-1.821,0.734
		c-0.479,0-0.903-0.112-1.274-0.337s-0.657-0.547-0.859-0.967s-0.303-0.911-0.303-1.475c0-0.872,0.218-1.552,0.654-2.038
		c0.437-0.487,1.042-0.73,1.816-0.73c0.749,0,1.344,0.249,1.784,0.747C62.489,13.43,62.709,14.104,62.709,14.953z M58.632,14.953
		c0,0.684,0.137,1.204,0.41,1.563s0.676,0.537,1.206,0.537s0.934-0.179,1.209-0.534c0.274-0.357,0.412-0.879,0.412-1.565
		c0-0.681-0.138-1.197-0.412-1.55c-0.275-0.354-0.682-0.53-1.219-0.53c-0.53,0-0.931,0.174-1.201,0.522S58.632,14.263,58.632,14.953
		z"/>
	<path fill="#5C4155" d="M66.572,12.185c0.237,0,0.451,0.02,0.64,0.059l-0.112,0.752c-0.222-0.049-0.417-0.073-0.586-0.073
		c-0.433,0-0.804,0.176-1.11,0.527c-0.309,0.352-0.462,0.789-0.462,1.313v2.871H64.13v-5.352h0.669l0.093,0.991h0.039
		c0.198-0.349,0.438-0.617,0.718-0.806S66.237,12.185,66.572,12.185z"/>
	<path fill="#5C4155" d="M72.592,12.282v0.513l-0.991,0.117c0.091,0.114,0.173,0.263,0.244,0.446
		c0.071,0.185,0.107,0.392,0.107,0.623c0,0.524-0.179,0.942-0.537,1.255s-0.85,0.469-1.475,0.469c-0.159,0-0.31-0.013-0.449-0.039
		c-0.345,0.183-0.518,0.412-0.518,0.688c0,0.146,0.061,0.255,0.181,0.324c0.12,0.07,0.327,0.105,0.62,0.105h0.947
		c0.579,0,1.024,0.122,1.335,0.366c0.312,0.244,0.467,0.599,0.467,1.064c0,0.593-0.237,1.044-0.713,1.354
		c-0.476,0.312-1.169,0.467-2.08,0.467c-0.7,0-1.239-0.13-1.619-0.391c-0.379-0.261-0.568-0.628-0.568-1.104
		c0-0.325,0.104-0.607,0.313-0.845s0.501-0.398,0.879-0.483c-0.137-0.062-0.252-0.158-0.344-0.288
		c-0.094-0.13-0.14-0.281-0.14-0.454c0-0.195,0.052-0.366,0.156-0.513s0.269-0.288,0.493-0.425
		c-0.276-0.114-0.502-0.308-0.676-0.581c-0.175-0.273-0.262-0.586-0.262-0.938c0-0.586,0.176-1.038,0.527-1.354
		c0.352-0.318,0.85-0.477,1.494-0.477c0.28,0,0.532,0.032,0.757,0.098H72.592z M68.325,18.532c0,0.29,0.122,0.51,0.366,0.659
		s0.594,0.225,1.05,0.225c0.681,0,1.184-0.102,1.512-0.306c0.326-0.203,0.49-0.479,0.49-0.827c0-0.29-0.09-0.491-0.269-0.603
		c-0.179-0.113-0.516-0.169-1.011-0.169h-0.972c-0.368,0-0.654,0.088-0.859,0.264S68.325,18.203,68.325,18.532z M68.764,13.996
		c0,0.374,0.105,0.657,0.317,0.85s0.506,0.288,0.884,0.288c0.791,0,1.187-0.384,1.187-1.152c0-0.804-0.4-1.206-1.201-1.206
		c-0.381,0-0.674,0.103-0.879,0.308S68.764,13.593,68.764,13.996z"/>
	<path fill="#5C4155" d="M75.952,17.732c-0.791,0-1.415-0.241-1.873-0.723c-0.457-0.481-0.686-1.15-0.686-2.007
		c0-0.862,0.213-1.548,0.637-2.056c0.426-0.508,0.996-0.762,1.712-0.762c0.671,0,1.201,0.221,1.592,0.662
		c0.391,0.44,0.586,1.022,0.586,1.745v0.513h-3.687c0.017,0.628,0.175,1.105,0.477,1.431c0.301,0.325,0.725,0.488,1.271,0.488
		c0.576,0,1.146-0.12,1.709-0.361v0.723c-0.286,0.124-0.558,0.212-0.813,0.267C76.622,17.704,76.313,17.732,75.952,17.732z
		 M75.732,12.863c-0.43,0-0.772,0.14-1.028,0.42c-0.255,0.28-0.405,0.667-0.451,1.162h2.798c0-0.511-0.114-0.902-0.342-1.175
		C76.481,12.999,76.155,12.863,75.732,12.863z"/>
	<path fill="#5C4155" d="M81.03,17.063c0.144,0,0.281-0.011,0.415-0.032c0.134-0.021,0.239-0.043,0.317-0.065v0.62
		c-0.088,0.042-0.217,0.077-0.389,0.105c-0.17,0.027-0.324,0.041-0.461,0.041c-1.035,0-1.553-0.545-1.553-1.636v-3.184h-0.767
		v-0.391l0.767-0.337l0.342-1.143h0.469v1.24h1.553v0.63H80.17v3.149c0,0.322,0.076,0.569,0.229,0.742S80.763,17.063,81.03,17.063z"
		/>
	<path fill="#5C4155" d="M87.158,17.063c0.144,0,0.281-0.011,0.415-0.032c0.134-0.021,0.239-0.043,0.317-0.065v0.62
		c-0.088,0.042-0.218,0.077-0.388,0.105c-0.172,0.027-0.325,0.041-0.462,0.041c-1.035,0-1.553-0.545-1.553-1.636v-3.184h-0.767
		v-0.391l0.767-0.337l0.342-1.143h0.469v1.24h1.553v0.63h-1.553v3.149c0,0.322,0.076,0.569,0.229,0.742S86.891,17.063,87.158,17.063
		z"/>
	<path fill="#5C4155" d="M93.579,14.953c0,0.872-0.22,1.554-0.659,2.044c-0.439,0.489-1.047,0.734-1.821,0.734
		c-0.479,0-0.903-0.112-1.274-0.337s-0.657-0.547-0.859-0.967s-0.303-0.911-0.303-1.475c0-0.872,0.218-1.552,0.654-2.038
		c0.437-0.487,1.042-0.73,1.816-0.73c0.749,0,1.344,0.249,1.784,0.747C93.358,13.43,93.579,14.104,93.579,14.953z M89.501,14.953
		c0,0.684,0.137,1.204,0.41,1.563s0.676,0.537,1.206,0.537s0.934-0.179,1.209-0.534c0.274-0.357,0.412-0.879,0.412-1.565
		c0-0.681-0.138-1.197-0.412-1.55c-0.275-0.354-0.682-0.53-1.219-0.53c-0.53,0-0.931,0.174-1.201,0.522S89.501,14.263,89.501,14.953
		z"/>
</g>
<g>
	<path fill="#5C4155" d="M12.182,31.349c-0.775,0-1.375-0.238-1.799-0.715c-0.425-0.478-0.637-1.152-0.637-2.024
		c0-0.896,0.216-1.587,0.647-2.075s1.046-0.732,1.843-0.732c0.257,0,0.514,0.027,0.771,0.083s0.459,0.12,0.605,0.195l-0.249,0.688
		c-0.179-0.071-0.375-0.131-0.586-0.178c-0.211-0.048-0.399-0.071-0.562-0.071c-1.087,0-1.631,0.693-1.631,2.08
		c0,0.657,0.133,1.162,0.398,1.514s0.658,0.527,1.179,0.527c0.446,0,0.903-0.096,1.372-0.288v0.718
		C13.177,31.256,12.726,31.349,12.182,31.349z"/>
	<path fill="#5C4155" d="M19.423,28.571c0,0.872-0.22,1.554-0.659,2.044c-0.439,0.489-1.046,0.734-1.821,0.734
		c-0.479,0-0.903-0.112-1.274-0.337s-0.658-0.547-0.859-0.967s-0.303-0.911-0.303-1.475c0-0.872,0.218-1.552,0.654-2.038
		c0.436-0.487,1.042-0.73,1.816-0.73c0.749,0,1.344,0.249,1.785,0.747S19.423,27.721,19.423,28.571z M15.346,28.571
		c0,0.684,0.137,1.204,0.41,1.563s0.675,0.537,1.206,0.537s0.934-0.179,1.208-0.534c0.275-0.357,0.413-0.879,0.413-1.565
		c0-0.681-0.138-1.197-0.413-1.55c-0.275-0.354-0.681-0.53-1.218-0.53c-0.531,0-0.931,0.174-1.201,0.522S15.346,27.88,15.346,28.571
		z"/>
	<path fill="#5C4155" d="M24.506,31.251v-3.462c0-0.437-0.099-0.762-0.298-0.977s-0.509-0.322-0.933-0.322
		c-0.56,0-0.97,0.151-1.23,0.454s-0.391,0.803-0.391,1.499v2.808h-0.811V25.9h0.659l0.132,0.732h0.039
		c0.166-0.264,0.399-0.468,0.698-0.613c0.299-0.145,0.633-0.217,1.001-0.217c0.645,0,1.129,0.155,1.455,0.467
		c0.326,0.311,0.488,0.808,0.488,1.491v3.491H24.506z"/>
	<path fill="#5C4155" d="M29.394,26.53h-1.362v4.722h-0.811V26.53h-0.957v-0.366l0.957-0.293v-0.298
		c0-1.315,0.575-1.973,1.724-1.973c0.283,0,0.615,0.057,0.996,0.171l-0.21,0.649c-0.313-0.101-0.58-0.151-0.801-0.151
		c-0.306,0-0.532,0.102-0.679,0.305c-0.146,0.204-0.22,0.53-0.22,0.979V25.9h1.362V26.53z M30.302,24.449
		c0-0.186,0.045-0.321,0.137-0.407c0.091-0.087,0.205-0.13,0.342-0.13c0.13,0,0.243,0.044,0.337,0.132s0.142,0.223,0.142,0.405
		s-0.047,0.318-0.142,0.407c-0.094,0.09-0.207,0.135-0.337,0.135c-0.137,0-0.25-0.045-0.342-0.135
		C30.348,24.768,30.302,24.632,30.302,24.449z M31.181,31.251h-0.811V25.9h0.811V31.251z"/>
	<path fill="#5C4155" d="M35.341,25.802c0.238,0,0.451,0.02,0.64,0.059l-0.112,0.752c-0.221-0.049-0.417-0.073-0.586-0.073
		c-0.433,0-0.803,0.176-1.111,0.527s-0.461,0.789-0.461,1.313v2.871H32.9V25.9h0.669l0.093,0.991h0.039
		c0.199-0.349,0.438-0.617,0.718-0.806S35.006,25.802,35.341,25.802z"/>
	<path fill="#5C4155" d="M43.803,31.251V27.77c0-0.427-0.091-0.746-0.273-0.96c-0.182-0.213-0.465-0.319-0.85-0.319
		c-0.504,0-0.877,0.145-1.118,0.435s-0.361,0.735-0.361,1.338v2.988H40.39V27.77c0-0.427-0.091-0.746-0.273-0.96
		c-0.182-0.213-0.467-0.319-0.854-0.319c-0.508,0-0.88,0.152-1.116,0.456c-0.236,0.305-0.354,0.804-0.354,1.497v2.808h-0.811V25.9
		h0.659l0.132,0.732h0.039c0.153-0.261,0.369-0.464,0.647-0.61s0.59-0.22,0.935-0.22c0.836,0,1.383,0.303,1.641,0.908h0.039
		c0.16-0.28,0.391-0.501,0.693-0.664s0.648-0.244,1.035-0.244c0.605,0,1.059,0.155,1.36,0.467c0.301,0.311,0.452,0.808,0.452,1.491
		v3.491H43.803z"/>
	<path fill="#5C4155" d="M48.032,25.9h0.869l1.172,3.052c0.257,0.696,0.417,1.199,0.479,1.509h0.039
		c0.042-0.166,0.131-0.45,0.266-0.852c0.135-0.402,0.577-1.639,1.326-3.709h0.869l-2.3,6.094c-0.228,0.603-0.494,1.029-0.798,1.281
		c-0.304,0.253-0.678,0.379-1.121,0.379c-0.248,0-0.492-0.027-0.732-0.083v-0.649c0.179,0.039,0.379,0.059,0.601,0.059
		c0.557,0,0.954-0.313,1.191-0.938l0.298-0.762L48.032,25.9z"/>
	<path fill="#5C4155" d="M58.539,28.571c0,0.872-0.22,1.554-0.659,2.044c-0.439,0.489-1.047,0.734-1.821,0.734
		c-0.479,0-0.903-0.112-1.274-0.337s-0.658-0.547-0.859-0.967s-0.303-0.911-0.303-1.475c0-0.872,0.218-1.552,0.654-2.038
		c0.436-0.487,1.042-0.73,1.816-0.73c0.749,0,1.344,0.249,1.784,0.747C58.319,27.047,58.539,27.721,58.539,28.571z M54.462,28.571
		c0,0.684,0.137,1.204,0.41,1.563s0.676,0.537,1.206,0.537s0.934-0.179,1.209-0.534c0.274-0.357,0.412-0.879,0.412-1.565
		c0-0.681-0.138-1.197-0.412-1.55c-0.275-0.354-0.682-0.53-1.219-0.53c-0.53,0-0.931,0.174-1.201,0.522
		C54.598,27.362,54.462,27.88,54.462,28.571z"/>
	<path fill="#5C4155" d="M60.722,25.9v3.472c0,0.437,0.1,0.762,0.298,0.977s0.51,0.322,0.933,0.322c0.56,0,0.97-0.153,1.228-0.459
		c0.26-0.306,0.389-0.806,0.389-1.499V25.9h0.811v5.352H63.71l-0.117-0.718h-0.044c-0.166,0.264-0.396,0.466-0.691,0.605
		c-0.294,0.14-0.63,0.21-1.008,0.21c-0.651,0-1.139-0.154-1.463-0.464c-0.323-0.31-0.485-0.804-0.485-1.484V25.9H60.722z"/>
	<path fill="#5C4155" d="M68.539,25.802c0.237,0,0.451,0.02,0.64,0.059l-0.112,0.752c-0.222-0.049-0.417-0.073-0.586-0.073
		c-0.433,0-0.803,0.176-1.111,0.527c-0.307,0.352-0.461,0.789-0.461,1.313v2.871h-0.811V25.9h0.669l0.093,0.991h0.039
		c0.198-0.349,0.438-0.617,0.718-0.806S68.205,25.802,68.539,25.802z"/>
	<path fill="#5C4155" d="M76.069,31.251l-0.161-0.762h-0.039c-0.267,0.335-0.533,0.563-0.798,0.682
		c-0.266,0.118-0.597,0.178-0.994,0.178c-0.53,0-0.946-0.137-1.248-0.41c-0.301-0.273-0.451-0.662-0.451-1.167
		c0-1.081,0.864-1.647,2.593-1.699l0.908-0.029v-0.332c0-0.42-0.091-0.729-0.271-0.931c-0.182-0.199-0.47-0.3-0.867-0.3
		c-0.446,0-0.95,0.137-1.514,0.41l-0.249-0.62c0.264-0.144,0.553-0.256,0.866-0.337c0.314-0.081,0.63-0.122,0.945-0.122
		c0.638,0,1.111,0.142,1.418,0.425c0.309,0.283,0.462,0.737,0.462,1.362v3.652H76.069z M74.238,30.68
		c0.505,0,0.901-0.139,1.188-0.415c0.289-0.276,0.433-0.664,0.433-1.162v-0.483l-0.811,0.034c-0.645,0.022-1.109,0.123-1.394,0.301
		c-0.285,0.177-0.428,0.453-0.428,0.827c0,0.293,0.089,0.516,0.266,0.669C73.67,30.604,73.918,30.68,74.238,30.68z"/>
	<path fill="#5C4155" d="M80.478,31.349c-0.774,0-1.374-0.238-1.8-0.715c-0.424-0.478-0.637-1.152-0.637-2.024
		c0-0.896,0.216-1.587,0.646-2.075c0.432-0.488,1.046-0.732,1.844-0.732c0.257,0,0.515,0.027,0.771,0.083s0.459,0.12,0.605,0.195
		l-0.249,0.688c-0.179-0.071-0.374-0.131-0.586-0.178c-0.212-0.048-0.398-0.071-0.562-0.071c-1.087,0-1.631,0.693-1.631,2.08
		c0,0.657,0.133,1.162,0.398,1.514c0.265,0.352,0.658,0.527,1.179,0.527c0.446,0,0.903-0.096,1.372-0.288v0.718
		C81.472,31.256,81.022,31.349,80.478,31.349z"/>
	<path fill="#5C4155" d="M85.239,31.349c-0.774,0-1.375-0.238-1.799-0.715c-0.426-0.478-0.638-1.152-0.638-2.024
		c0-0.896,0.216-1.587,0.647-2.075c0.431-0.488,1.045-0.732,1.843-0.732c0.257,0,0.515,0.027,0.771,0.083s0.459,0.12,0.605,0.195
		l-0.249,0.688c-0.179-0.071-0.374-0.131-0.586-0.178c-0.212-0.048-0.398-0.071-0.562-0.071c-1.087,0-1.631,0.693-1.631,2.08
		c0,0.657,0.133,1.162,0.397,1.514c0.266,0.352,0.659,0.527,1.18,0.527c0.446,0,0.903-0.096,1.372-0.288v0.718
		C86.233,31.256,85.783,31.349,85.239,31.349z"/>
	<path fill="#5C4155" d="M92.48,28.571c0,0.872-0.22,1.554-0.659,2.044c-0.439,0.489-1.047,0.734-1.821,0.734
		c-0.479,0-0.903-0.112-1.274-0.337s-0.657-0.547-0.859-0.967s-0.303-0.911-0.303-1.475c0-0.872,0.218-1.552,0.654-2.038
		c0.437-0.487,1.042-0.73,1.816-0.73c0.749,0,1.344,0.249,1.785,0.747C92.259,27.047,92.48,27.721,92.48,28.571z M88.403,28.571
		c0,0.684,0.137,1.204,0.41,1.563s0.676,0.537,1.206,0.537s0.934-0.179,1.208-0.534c0.275-0.357,0.413-0.879,0.413-1.565
		c0-0.681-0.138-1.197-0.413-1.55c-0.274-0.354-0.681-0.53-1.218-0.53c-0.53,0-0.931,0.174-1.201,0.522S88.403,27.88,88.403,28.571z
		"/>
	<path fill="#5C4155" d="M94.663,25.9v3.472c0,0.437,0.1,0.762,0.298,0.977s0.51,0.322,0.933,0.322c0.56,0,0.969-0.153,1.229-0.459
		c0.258-0.306,0.388-0.806,0.388-1.499V25.9h0.811v5.352h-0.669l-0.117-0.718H97.49c-0.166,0.264-0.396,0.466-0.69,0.605
		c-0.295,0.14-0.631,0.21-1.009,0.21c-0.651,0-1.139-0.154-1.462-0.464c-0.324-0.31-0.486-0.804-0.486-1.484V25.9H94.663z"/>
	<path fill="#5C4155" d="M103.701,31.251v-3.462c0-0.437-0.1-0.762-0.298-0.977s-0.51-0.322-0.933-0.322
		c-0.56,0-0.97,0.151-1.23,0.454s-0.391,0.803-0.391,1.499v2.808h-0.811V25.9h0.659l0.132,0.732h0.039
		c0.166-0.264,0.398-0.468,0.698-0.613c0.3-0.145,0.633-0.217,1.001-0.217c0.645,0,1.13,0.155,1.455,0.467
		c0.325,0.311,0.488,0.808,0.488,1.491v3.491H103.701z"/>
	<path fill="#5C4155" d="M107.905,30.68c0.144,0,0.281-0.011,0.415-0.032c0.134-0.021,0.239-0.043,0.317-0.065v0.62
		c-0.088,0.042-0.217,0.077-0.389,0.105c-0.17,0.027-0.324,0.041-0.461,0.041c-1.035,0-1.553-0.545-1.553-1.636V26.53h-0.767v-0.391
		l0.767-0.337l0.342-1.143h0.469v1.24h1.553v0.63h-1.553v3.149c0,0.322,0.076,0.569,0.229,0.742S107.638,30.68,107.905,30.68z"/>
	<path fill="#5C4155" d="M109.589,30.734c0-0.442,0.195-0.664,0.586-0.664c0.188,0,0.335,0.057,0.437,0.171
		c0.104,0.114,0.154,0.278,0.154,0.493c0,0.208-0.052,0.37-0.156,0.486c-0.104,0.115-0.249,0.173-0.435,0.173
		c-0.169,0-0.31-0.052-0.42-0.153C109.645,31.136,109.589,30.968,109.589,30.734z M110.439,29.283h-0.513l-0.249-5.171h1.011
		L110.439,29.283z"/>
</g>
</svg>
