<?xml version="1.0" encoding="utf-8"?>
<!-- Generator: Adobe Illustrator 17.0.0, SVG Export Plug-In . SVG Version: 6.00 Build 0)  -->
<!DOCTYPE svg PUBLIC "-//W3C//DTD SVG 1.1//EN" "http://www.w3.org/Graphics/SVG/1.1/DTD/svg11.dtd">
<svg version="1.1" id="Layer_1" xmlns="http://www.w3.org/2000/svg" xmlns:xlink="http://www.w3.org/1999/xlink" x="0px" y="0px"
	 width="92.5px" height="90.667px" viewBox="0 0 92.5 90.667" enable-background="new 0 0 92.5 90.667" xml:space="preserve">
<g>
	<polygon fill="#FFFFFF" points="14.045,89.667 31.004,72.716 13.719,62.284 13.719,89.341 	"/>
	<path fill="#FFFFFF" d="M91.5,39.14c0,21.064-20.259,38.14-45.25,38.14S1,60.204,1,39.14S21.259,1,46.25,1S91.5,18.076,91.5,39.14z
		 M27.253,31.642c-3.692,0-6.686,2.992-6.686,6.683c0,3.691,2.993,6.683,6.686,6.683s6.686-2.992,6.686-6.683
		C33.939,34.634,30.945,31.642,27.253,31.642z M46.821,31.642c-3.692,0-6.686,2.992-6.686,6.683c0,3.691,2.993,6.683,6.686,6.683
		s6.686-2.992,6.686-6.683C53.506,34.634,50.513,31.642,46.821,31.642z M65.41,31.642c-3.692,0-6.686,2.992-6.686,6.683
		c0,3.691,2.993,6.683,6.686,6.683c3.692,0,6.686-2.992,6.686-6.683C72.095,34.634,69.102,31.642,65.41,31.642z"/>
</g>
</svg>
