<svg version="1.1" id="Layer_1" xmlns="http://www.w3.org/2000/svg" xmlns:xlink="http://www.w3.org/1999/xlink" x="0px" y="0px"
	 width="62.629px" height="62.578px" viewBox="0 0 62.629 62.578" enable-background="new 0 0 62.629 62.578" xml:space="preserve">
<path fill="#FDBE3B" d="M44.62,31.097c0-7.335-5.945-13.281-13.281-13.281c-7.335,0-13.281,5.946-13.281,13.281
	c0,7.335,5.946,13.281,13.281,13.281C38.674,44.379,44.62,38.432,44.62,31.097z M22.961,31.097c0-4.627,3.751-8.377,8.377-8.377
	c4.627,0,8.377,3.751,8.377,8.377c0,4.627-3.751,8.377-8.377,8.377C26.712,39.475,22.961,35.724,22.961,31.097z M62.538,37.698
	l0.09-9.194l-5.925-0.058c-0.386-3.734-1.581-7.227-3.402-10.306l4.564-4.519l-6.469-6.533l-4.136,4.096
	c-2.833-2.268-6.158-3.944-9.792-4.841V0h-9.195v5.785c-3.4,0.408-6.593,1.483-9.446,3.093l-4.341-4.65l-6.72,6.273l3.985,4.27
	c-2.314,2.774-4.047,6.047-5.02,9.634l-6.459-0.19L0,33.404l5.959,0.176c0.358,3.708,1.514,7.18,3.288,10.251l-4.777,4.547
	l6.339,6.659l4.4-4.189c2.752,2.25,5.983,3.934,9.517,4.88l-0.132,6.669l9.192,0.181l0.121-6.108
	c3.679-0.368,7.123-1.523,10.172-3.286l4.638,4.777l6.596-6.405l-4.215-4.342c2.261-2.769,3.951-6.022,4.892-9.58L62.538,37.698z
	 M15.849,31.097c0-8.555,6.935-15.489,15.489-15.489c8.554,0,15.49,6.935,15.49,15.489s-6.935,15.489-15.49,15.489
	C22.784,46.587,15.849,39.652,15.849,31.097z"/>
</svg>
