<?xml version="1.0" encoding="utf-8"?>
<!-- Generator: Adobe Illustrator 17.0.0, SVG Export Plug-In . SVG Version: 6.00 Build 0)  -->
<!DOCTYPE svg PUBLIC "-//W3C//DTD SVG 1.1//EN" "http://www.w3.org/Graphics/SVG/1.1/DTD/svg11.dtd">
<svg version="1.1" id="Layer_1" xmlns="http://www.w3.org/2000/svg" xmlns:xlink="http://www.w3.org/1999/xlink" x="0px" y="0px"
	 width="66.611px" height="109.5px" viewBox="0 0 66.611 109.5" enable-background="new 0 0 66.611 109.5" xml:space="preserve">
<g>
	<path fill="#FFFFFF" d="M33.303,4.304c16.106,0,29.206,12.135,29.206,27.048c0,12.609-14.722,42.098-18.523,49.5l-18.892,0.017
		C18.462,69.482,4.103,42.504,4.103,31.353C4.103,16.439,17.203,4.304,33.303,4.304 M33.303,1.25
		c-17.947,0-32.498,13.477-32.498,30.102c0,15.066,22.334,52.57,22.334,52.57l22.919-0.016c0,0,19.747-37.267,19.747-52.554
		C65.805,14.727,51.253,1.25,33.303,1.25L33.303,1.25z"/>
	<path fill-rule="evenodd" clip-rule="evenodd" fill="#FFFFFF" d="M33.304,108.25c3.236,0,6.16-1.204,8.308-3.142H24.999
		C27.148,107.046,30.069,108.25,33.304,108.25z"/>
	<path fill-rule="evenodd" clip-rule="evenodd" fill="#FFFFFF" d="M45.233,85.834H21.378v15.335c0,0.696,0.091,1.364,0.19,2.028
		h23.47c0.1-0.664,0.194-1.331,0.194-2.028V85.834z"/>
	<polygon fill-rule="evenodd" clip-rule="evenodd" fill="#FFFFFF" points="15.741,43.207 23.222,31.481 37.534,56.236 
		48.593,35.716 53.472,37.996 53.798,22.687 39.811,31.156 44.69,33.761 36.883,46.79 22.897,23.99 12.813,39.95 	"/>
</g>
</svg>
