<?xml version="1.0" encoding="utf-8"?>
<!-- Generator: Adobe Illustrator 17.0.0, SVG Export Plug-In . SVG Version: 6.00 Build 0)  -->
<!DOCTYPE svg PUBLIC "-//W3C//DTD SVG 1.1//EN" "http://www.w3.org/Graphics/SVG/1.1/DTD/svg11.dtd">
<svg version="1.1" id="Layer_1" xmlns="http://www.w3.org/2000/svg" xmlns:xlink="http://www.w3.org/1999/xlink" x="0px" y="0px"
	 width="60.35px" height="97.871px" viewBox="0 0 60.35 97.871" enable-background="new 0 0 60.35 97.871" xml:space="preserve">
<path fill="#FFFFFF" d="M1,27.412L25.494,2.596c0,0,3.867-3.592,9.024,0S58.85,27.738,58.85,27.738l0.483,62.937
	c0,0,0.56,5.665-4.834,5.959c-7.493,0.408-34.082,0.163-34.082,0.163L1,77.043V27.412z M26.864,17.548
	c-0.001,1.855,1.483,3.358,3.312,3.356c1.829,0.001,3.312-1.501,3.311-3.354c0.002-1.852-1.482-3.356-3.312-3.356
	C28.348,14.195,26.865,15.697,26.864,17.548z"/>
<polygon fill="#E5E5E5" points="1,77.043 20.246,77.043 20.246,96.798 "/>
</svg>
