<!DOCTYPE svg PUBLIC "-//W3C//DTD SVG 1.1//EN" "http://www.w3.org/Graphics/SVG/1.1/DTD/svg11.dtd">
<svg version="1.1" id="Layer_1" xmlns="http://www.w3.org/2000/svg" xmlns:xlink="http://www.w3.org/1999/xlink" x="0px" y="0px"
	 width="99.902px" height="98.969px" viewBox="0 0 99.902 98.969" enable-background="new 0 0 99.902 98.969" xml:space="preserve">
<path fill="#FFFFFF" d="M28.131,44.825c0,0,1.511-1.763,6.044-2.518c0,0,7.051-14.354,12.088-19.139s8.814-9.318,9.066-14.858
	C55.58,2.77,56.336,0,59.609,0c3.274,0,7.807,3.526,8.31,15.362c0.504,11.836-2.015,20.65-2.77,20.65h24.931
	c0,0,9.821,4.029,9.821,11.332s0,39.789,0,39.789s-2.266,11.836-10.073,11.836s-41.048,0-41.048,0l-9.318-3.022l-9.569-0.252
	c0,0-1.763-0.252-1.763-4.029C28.131,87.888,28.131,44.825,28.131,44.825z"/>
<path fill="#FFFFFF" d="M20.833,94.748c0,2.209-1.791,4-4,4H4c-2.209,0-4-1.791-4-4V43.331c0-2.209,1.791-4,4-4h12.833
	c2.209,0,4,1.791,4,4V94.748z M14.333,48.498H7.167v31.333h7.167V48.498z M14,83.331H7.083v6.917H14V83.331z"/>
</svg>
