<?xml version="1.0" encoding="utf-8"?>
<!-- Generator: Adobe Illustrator 17.0.0, SVG Export Plug-In . SVG Version: 6.00 Build 0)  -->
<!DOCTYPE svg PUBLIC "-//W3C//DTD SVG 1.1//EN" "http://www.w3.org/Graphics/SVG/1.1/DTD/svg11.dtd">
<svg version="1.1" id="Layer_1" xmlns="http://www.w3.org/2000/svg" xmlns:xlink="http://www.w3.org/1999/xlink" x="0px" y="0px"
	 width="49.818px" height="41.07px" viewBox="0 0 49.818 41.07" enable-background="new 0 0 49.818 41.07" xml:space="preserve">
<path fill="#5B3E5A" d="M47.517,5.422l-4.706-3.834C41.555,0.564,39.969,0,38.347,0H11.47C9.85,0,8.264,0.564,7.007,1.588
	L2.302,5.421C0.839,6.613,0,8.379,0,10.266v24.649c0,3.394,2.76,6.155,6.152,6.155h37.514c3.393,0,6.152-2.761,6.152-6.155V10.266
	C49.818,8.379,48.98,6.614,47.517,5.422L47.517,5.422z M12.811,7.213l0.856-1.012c0.511-0.604,1.154-0.936,1.813-0.936h18.958
	c0.659,0,1.301,0.332,1.813,0.936l0.856,1.012c0.265,0.314,0.112,0.936-0.229,0.936H13.04C12.698,8.149,12.546,7.527,12.811,7.213
	L12.811,7.213z M35.261,22.125c-1.916,0.068-2.722-1.542-2.722-1.542c-4.623,2.049-7.194,9.475-13.356,11.218
	c-5.841,1.653-10.115-7.586-5.075-10.968c5.318-3.568,12.642-0.721,17.196-2.918c0,0-0.797-1.966,0.275-3.031
	c2.495-2.481,5.546-0.234,4.371,2.501C39.304,17.651,38.173,22.021,35.261,22.125L35.261,22.125z"/>
</svg>
