<?xml version="1.0" encoding="utf-8"?>
<!-- Generator: Adobe Illustrator 17.0.0, SVG Export Plug-In . SVG Version: 6.00 Build 0)  -->
<!DOCTYPE svg PUBLIC "-//W3C//DTD SVG 1.1//EN" "http://www.w3.org/Graphics/SVG/1.1/DTD/svg11.dtd">
<svg version="1.1" id="Layer_1" xmlns="http://www.w3.org/2000/svg" xmlns:xlink="http://www.w3.org/1999/xlink" x="0px" y="0px"
	 width="54.799px" height="57.588px" viewBox="0 0 54.799 57.588" enable-background="new 0 0 54.799 57.588" xml:space="preserve">
<g>
	<path fill="#FEBF3B" d="M36.876,4.502v7.305c6.657,3.436,11.217,10.368,11.217,18.38c0,11.423-9.265,20.689-20.688,20.689
		c-11.427,0-20.694-9.266-20.694-20.689c0-7.346,3.84-13.783,9.606-17.452V5.136C6.715,9.394,0,19.001,0,30.188
		c0,15.13,12.264,27.4,27.399,27.4c15.134,0,27.399-12.27,27.399-27.4C54.799,18.386,47.328,8.366,36.876,4.502z"/>
	<path fill="#FEBF3B" d="M26.871,33.723c3.01,0,3.313-1.776,3.313-3.965V3.971C30.185,1.779,29.881,0,26.871,0
		c-3.001,0-3.308,1.779-3.308,3.971v25.787C23.564,31.947,23.871,33.723,26.871,33.723z"/>
</g>
</svg>
