<?xml version="1.0" encoding="utf-8"?>
<!-- Generator: Adobe Illustrator 17.0.0, SVG Export Plug-In . SVG Version: 6.00 Build 0)  -->
<!DOCTYPE svg PUBLIC "-//W3C//DTD SVG 1.1//EN" "http://www.w3.org/Graphics/SVG/1.1/DTD/svg11.dtd">
<svg version="1.1" id="Layer_1" xmlns="http://www.w3.org/2000/svg" xmlns:xlink="http://www.w3.org/1999/xlink" x="0px" y="0px"
	 width="54.666px" height="51.25px" viewBox="0 0 54.666 51.25" enable-background="new 0 0 54.666 51.25" xml:space="preserve">
<path fill="#FEBF3B" d="M5.125,5.13h1.708h3.417V2.56c0-1.41,1.153-2.56,2.563-2.56c1.402,0,2.562,1.16,2.562,2.56v2.57h3.417h8.541
	h8.542h3.417V2.56c0-1.4,1.159-2.56,2.562-2.56c1.409,0,2.563,1.15,2.563,2.56v2.57h3.416h1.708c2.819,0,5.125,2.3,5.125,5.12v35.87
	c0,2.82-2.306,5.13-5.125,5.13H27.333H5.125C2.306,51.25,0,48.94,0,46.12V10.25C0,7.43,2.306,5.13,5.125,5.13L5.125,5.13L5.125,5.13
	z M39.292,37.58v5.13h6.833v-5.13H39.292L39.292,37.58z M29.042,37.58v5.13h6.833v-5.13H29.042L29.042,37.58z M18.792,37.58v5.13
	h6.833v-5.13H18.792L18.792,37.58z M8.542,37.58v5.13h6.833v-5.13H8.542L8.542,37.58z M39.292,29.04v5.13h6.833v-5.13H39.292
	L39.292,29.04z M29.042,29.04v5.13h6.833v-5.13H29.042L29.042,29.04z M18.792,29.04v5.13h6.833v-5.13H18.792L18.792,29.04z
	 M8.542,29.04v5.13h6.833v-5.13H8.542L8.542,29.04z M39.292,20.5v5.13h6.833V20.5H39.292L39.292,20.5z M29.042,20.5v5.13h6.833V20.5
	H29.042L29.042,20.5z M18.792,20.5v5.13h6.833V20.5H18.792L18.792,20.5z M8.542,20.5v5.13h6.833V20.5H8.542L8.542,20.5z"/>
</svg>
