<svg version="1.1" id="Layer_1" xmlns="http://www.w3.org/2000/svg" xmlns:xlink="http://www.w3.org/1999/xlink" x="0px" y="0px"
	 width="130.901px" height="98.072px" viewBox="0 0 130.901 98.072" enable-background="new 0 0 130.901 98.072"
	 xml:space="preserve">
<path fill="#FFF" d="M130.901,64.915c0,18.284-14.61,33.108-32.631,33.108v0.049H35.602c-4.044,0-7.322-3.279-7.322-7.322
	c0-4.044,3.278-7.323,7.322-7.323h31.296V81.78H16.616c-4.356,0-7.886-3.531-7.886-7.886c0-4.355,3.531-7.887,7.886-7.887h49.05
	c-0.012-0.363-0.027-0.726-0.027-1.092c0-0.54,0.015-1.076,0.04-1.609H7.886C3.531,63.306,0,59.775,0,55.42
	c0-4.355,3.531-7.887,7.886-7.887h59.012v-2.107H24.759c-4.356,0-7.886-3.531-7.886-7.886c0-4.355,3.531-7.887,7.886-7.887h63.036
	l-15.86-16.452c-0.003-0.003-0.007-0.006-0.01-0.009c-2.985-3.097-2.894-8.027,0.202-11.01c3.095-2.985,8.026-2.896,11.011,0.2
	V2.381l34.878,36.179c2.535,1.959,4.777,4.285,6.652,6.901l0.629,0.652l-0.102,0.099C128.792,51.534,130.901,57.974,130.901,64.915z
	 M101.599,63.609c-1.4-1.64-3.73-2.93-6.97-3.89v-0.02c-0.18-0.044-0.354-0.097-0.514-0.166c-0.432-0.079-0.861-0.171-1.29-0.272
	c-0.45-0.088-0.899-0.185-1.346-0.29c-0.032-0.008-0.06-0.024-0.092-0.033c-0.057-0.011-0.12-0.015-0.174-0.031
	c-1.274-0.34-2.254-0.938-2.914-1.828c-0.69-0.93-1.03-2.16-1.03-3.67c0-1.59,0.38-2.91,1.16-3.96
	c0.538-0.725,1.179-1.195,1.911-1.45c0.02-0.009,0.041-0.017,0.061-0.026c0.067-0.022,0.132-0.047,0.2-0.065
	c0.286-0.108,0.599-0.181,0.928-0.231c0.332-0.077,0.683-0.126,1.068-0.126c0.143,0,0.266,0.03,0.401,0.041
	c0.035-0.001,0.064-0.01,0.099-0.01c0.319,0,0.608,0.045,0.887,0.104c0.35,0.03,0.676,0.093,0.977,0.19
	c0.309,0.056,0.606,0.129,0.865,0.249c0.63,0.214,1.164,0.603,1.593,1.183c0.261,0.353,0.475,0.793,0.664,1.277
	c0.272,0.589,0.44,1.229,0.506,1.881c0.052,0.304,0.105,0.607,0.14,0.942h4.14c0-2.77-0.74-5.01-2.21-6.72
	c-1.48-1.71-3.49-2.69-6.03-2.93v-3.68h-3.25v3.63c-2.54,0.26-4.55,1.28-6.03,3.08c-1.49,1.8-2.23,4.13-2.23,6.97
	c0,2.66,0.7,4.82,2.09,6.46c1.39,1.65,6.045,3.196,6.17,3.34s0.253,0.123,0.378,0.176c0.146,0.05,0.652,0.238,0.755,0.288
	c0.254,0.05,0.485,0.13,0.706,0.223c0.256,0.06,0.498,0.138,0.719,0.242c0.11,0.034,0.227,0.058,0.331,0.098
	c0.282,0.065,0.543,0.159,0.783,0.276c1.488,0.514,2.579,1.178,3.209,2.007c0.7,0.92,1.05,2.22,1.05,3.9c0,1.74-0.41,3.17-1.24,4.28
	c-0.82,1.1-1.97,1.78-3.44,2.02v-0.016c-0.122,0.03-0.254,0.044-0.388,0.057c-0.172,0.036-0.352,0.061-0.549,0.061
	c-0.072,0-0.137-0.012-0.203-0.02c-0.069,0.005-0.131,0.02-0.203,0.02c-0.076,0-0.141-0.016-0.214-0.021c-0.002,0-0.003,0-0.005,0
	c-0.159,0-0.301-0.024-0.446-0.044c-0.008,0-0.015,0.002-0.023,0.002c-0.056,0-0.102-0.013-0.156-0.016
	c-0.052,0.005-0.101,0.016-0.156,0.016c-0.238,0-0.457-0.031-0.662-0.078c-0.07-0.013-0.142-0.026-0.209-0.043
	c-0.274-0.025-0.527-0.079-0.752-0.169c-1.104-0.261-2.009-0.915-2.693-2.028c-0.83-1.35-1.24-3.16-1.24-5.42V69.02
	c-0.002-0.004-0.003-0.007-0.005-0.011h-4.195v0.51c0,3.5,0.75,6.2,2.23,8.12c1.48,1.92,3.69,3.04,6.62,3.37v4.75h3.25v-4.81
	c2.88-0.42,5.12-1.56,6.7-3.41c1.59-1.85,2.38-4.26,2.38-7.23C103.709,67.479,103.009,65.249,101.599,63.609z"/>
</svg>
