<?xml version="1.0" encoding="utf-8"?>
<!-- Generator: Adobe Illustrator 17.0.0, SVG Export Plug-In . SVG Version: 6.00 Build 0)  -->
<!DOCTYPE svg PUBLIC "-//W3C//DTD SVG 1.1//EN" "http://www.w3.org/Graphics/SVG/1.1/DTD/svg11.dtd">
<svg version="1.1" id="Layer_1" xmlns="http://www.w3.org/2000/svg" xmlns:xlink="http://www.w3.org/1999/xlink" x="0px" y="0px"
	 width="151.486px" height="98.759px" viewBox="0 0 151.486 98.759" enable-background="new 0 0 151.486 98.759"
	 xml:space="preserve">
<g>
	<g>
		<g>
			<g>
				<path fill="#FFFFFF" d="M65.807,12.999L34.545,44.246c17.269,17.276,45.26,17.276,62.517,0l31.271-31.247
					C111.048-4.266,83.07-4.266,65.807,12.999z"/>
			</g>
			<g>
				<path fill="#654665" d="M63.439,0H37.356c0,14.405,11.679,26.084,26.083,26.084h26.087C89.525,11.68,77.846,0,63.439,0z"/>
			</g>
		</g>
	</g>
	<g>
		<rect x="145.3" y="71.566" fill="#654665" width="6.187" height="27.192"/>
		<path fill="#654665" d="M133.515,71.566h-6.162v27.192h6.187V80.294c2.696-2.124,4.982-3.186,7.538-3.186v-5.543
			c-2.659,0-5.18,1.157-7.563,3.471V71.566z"/>
		<path fill="#654665" d="M48.156,71.566c-2.969,0-6.266,0.432-9.893,1.296V78.3c3.627-0.863,6.924-1.295,9.893-1.295
			c3.506,0,5.699,1.217,5.699,3.65v2.046c-1.848-0.345-4.137-0.517-5.982-0.517c-7.873,0-11.811,2.701-11.811,8.104
			c0,5.646,3.324,8.469,9.971,8.469c2.85,0,5.455-0.812,7.822-2.434v2.434h6.422V80.526C60.277,74.553,56.237,71.566,48.156,71.566z
			 M53.825,91.714c-2.362,1.417-4.476,2.125-6.755,2.125c-2.764,0-4.144-1.209-4.144-3.628c0-2.243,1.648-3.365,4.947-3.365
			c1.968,0,3.814,0.173,5.952,0.518V91.714z"/>
		<path fill="#654665" d="M108.757,71.566c-2.97,0-6.267,0.432-9.893,1.296V78.3c3.626-0.863,6.923-1.295,9.893-1.295
			c3.505,0,5.698,1.217,5.698,3.65v2.046c-1.848-0.345-4.136-0.517-5.982-0.517c-7.873,0-11.811,2.701-11.811,8.104
			c0,5.646,3.324,8.469,9.972,8.469c2.849,0,5.455-0.812,7.821-2.434v2.434h6.421V80.526
			C120.876,74.553,116.837,71.566,108.757,71.566z M114.426,91.714c-2.363,1.417-4.478,2.125-6.757,2.125
			c-2.762,0-4.144-1.209-4.144-3.628c0-2.243,1.649-3.365,4.947-3.365c1.968,0,3.814,0.173,5.953,0.518V91.714z"/>
		<path fill="#654665" d="M81.824,71.566c-3.332,0-6.303,1.331-8.909,3.988v-3.988h-6.163v27.192h6.163V79.775
			c2.823-1.778,4.999-2.667,7.226-2.667c2.987,0,4.48,1.502,4.48,4.506v17.144h6.863V81.614
			C91.484,74.915,88.264,71.566,81.824,71.566z"/>
		<rect x="0" y="61.722" fill="#654665" width="6.9" height="37.037"/>
		<path fill="#654665" d="M19.305,77.795l16.111-16.073H25.98L11.994,75.551l-0.5,0.564c-0.986,1.083-1.588,2.544-1.588,4.125
			c0,1.581,0.602,3.042,1.588,4.126l0.5,0.564L25.98,98.759h9.436L19.119,82.502l-0.85-0.848c-0.361-0.362-0.585-0.861-0.585-1.414
			c0-0.552,0.224-1.052,0.585-1.413L19.305,77.795z"/>
		<circle fill="#654665" cx="148.393" cy="64.85" r="3.094"/>
	</g>
	<path fill="#654665" d="M107.155,13.225c-1.204,1.202-3.164,1.202-4.353,0.007c-1.205-1.203-1.205-3.159,0-4.36
		c1.188-1.204,3.148-1.204,4.353,0C108.358,10.072,108.358,12.028,107.155,13.225z"/>
</g>
</svg>
